<?xml version="1.0" encoding="UTF-8" standalone="no"?><svg xmlns="http://www.w3.org/2000/svg" xmlns:xlink="http://www.w3.org/1999/xlink" contentScriptType="application/ecmascript" contentStyleType="text/css" height="296px" preserveAspectRatio="none" style="width:595px;height:296px;" version="1.1" viewBox="0 0 595 296" width="595px" zoomAndPan="magnify"><defs><filter height="300%" id="f19ucqmeg9vwdn" width="300%" x="-1" y="-1"><feGaussianBlur result="blurOut" stdDeviation="2.0"/><feColorMatrix in="blurOut" result="blurOut2" type="matrix" values="0 0 0 0 0 0 0 0 0 0 0 0 0 0 0 0 0 0 .4 0"/><feOffset dx="4.0" dy="4.0" in="blurOut2" result="blurOut3"/><feBlend in="SourceGraphic" in2="blurOut3" mode="normal"/></filter></defs><g><!--MD5=[18e4d9ca2a6cdced7b66e5fef94ef6f6]
class Tile--><rect fill="#FEFECE" filter="url(#f19ucqmeg9vwdn)" height="60.8047" id="Tile" style="stroke: #A80036; stroke-width: 1.5;" width="296" x="98" y="116"/><ellipse cx="231.25" cy="132" fill="#ADD1B2" rx="11" ry="11" style="stroke: #A80036; stroke-width: 1.0;"/><path d="M234.2188,137.6406 Q233.6406,137.9375 233,138.0781 Q232.3594,138.2344 231.6563,138.2344 Q229.1563,138.2344 227.8281,136.5938 Q226.5156,134.9375 226.5156,131.8125 Q226.5156,128.6875 227.8281,127.0313 Q229.1563,125.375 231.6563,125.375 Q232.3594,125.375 233,125.5313 Q233.6563,125.6875 234.2188,125.9844 L234.2188,128.7031 Q233.5938,128.125 233,127.8594 Q232.4063,127.5781 231.7813,127.5781 Q230.4375,127.5781 229.75,128.6563 Q229.0625,129.7188 229.0625,131.8125 Q229.0625,133.9063 229.75,134.9844 Q230.4375,136.0469 231.7813,136.0469 Q232.4063,136.0469 233,135.7813 Q233.5938,135.5 234.2188,134.9219 L234.2188,137.6406 Z "/><text fill="#000000" font-family="sans-serif" font-size="12" lengthAdjust="spacingAndGlyphs" textLength="21" x="251.75" y="136.1543">Tile</text><line style="stroke: #A80036; stroke-width: 1.5;" x1="99" x2="393" y1="148" y2="148"/><line style="stroke: #A80036; stroke-width: 1.5;" x1="99" x2="393" y1="156" y2="156"/><ellipse cx="109" cy="167" fill="#84BE84" rx="3" ry="3" style="stroke: #038048; stroke-width: 1.0;"/><text fill="#000000" font-family="sans-serif" font-size="11" lengthAdjust="spacingAndGlyphs" text-decoration="underline" textLength="270" x="118" y="170.2104">GetTileRotation(_tileRotation:TileRotation) : float</text><!--MD5=[83b3cf3d23d77c6f1e1b5291a241bc2a]
class MonoBehaviour--><rect fill="#FEFECE" filter="url(#f19ucqmeg9vwdn)" height="48" id="MonoBehaviour" style="stroke: #A80036; stroke-width: 1.5;" width="128" x="182" y="8"/><ellipse cx="197" cy="24" fill="#ADD1B2" rx="11" ry="11" style="stroke: #A80036; stroke-width: 1.0;"/><path d="M199.9688,29.6406 Q199.3906,29.9375 198.75,30.0781 Q198.1094,30.2344 197.4063,30.2344 Q194.9063,30.2344 193.5781,28.5938 Q192.2656,26.9375 192.2656,23.8125 Q192.2656,20.6875 193.5781,19.0313 Q194.9063,17.375 197.4063,17.375 Q198.1094,17.375 198.75,17.5313 Q199.4063,17.6875 199.9688,17.9844 L199.9688,20.7031 Q199.3438,20.125 198.75,19.8594 Q198.1563,19.5781 197.5313,19.5781 Q196.1875,19.5781 195.5,20.6563 Q194.8125,21.7188 194.8125,23.8125 Q194.8125,25.9063 195.5,26.9844 Q196.1875,28.0469 197.5313,28.0469 Q198.1563,28.0469 198.75,27.7813 Q199.3438,27.5 199.9688,26.9219 L199.9688,29.6406 Z "/><text fill="#000000" font-family="sans-serif" font-size="12" lengthAdjust="spacingAndGlyphs" textLength="96" x="211" y="28.1543">MonoBehaviour</text><line style="stroke: #A80036; stroke-width: 1.5;" x1="183" x2="309" y1="40" y2="40"/><line style="stroke: #A80036; stroke-width: 1.5;" x1="183" x2="309" y1="48" y2="48"/><!--MD5=[67dc9d447ac5dbb625e3d503755a5c3a]
class TileType--><rect fill="#FEFECE" filter="url(#f19ucqmeg9vwdn)" height="48" id="TileType" style="stroke: #A80036; stroke-width: 1.5;" width="82" x="6" y="237"/><ellipse cx="21" cy="253" fill="#ADD1B2" rx="11" ry="11" style="stroke: #A80036; stroke-width: 1.0;"/><path d="M23.9688,258.6406 Q23.3906,258.9375 22.75,259.0781 Q22.1094,259.2344 21.4063,259.2344 Q18.9063,259.2344 17.5781,257.5938 Q16.2656,255.9375 16.2656,252.8125 Q16.2656,249.6875 17.5781,248.0313 Q18.9063,246.375 21.4063,246.375 Q22.1094,246.375 22.75,246.5313 Q23.4063,246.6875 23.9688,246.9844 L23.9688,249.7031 Q23.3438,249.125 22.75,248.8594 Q22.1563,248.5781 21.5313,248.5781 Q20.1875,248.5781 19.5,249.6563 Q18.8125,250.7188 18.8125,252.8125 Q18.8125,254.9063 19.5,255.9844 Q20.1875,257.0469 21.5313,257.0469 Q22.1563,257.0469 22.75,256.7813 Q23.3438,256.5 23.9688,255.9219 L23.9688,258.6406 Z "/><text fill="#000000" font-family="sans-serif" font-size="12" lengthAdjust="spacingAndGlyphs" textLength="50" x="35" y="257.1543">TileType</text><line style="stroke: #A80036; stroke-width: 1.5;" x1="7" x2="87" y1="269" y2="269"/><line style="stroke: #A80036; stroke-width: 1.5;" x1="7" x2="87" y1="277" y2="277"/><!--MD5=[c817e6524c5f11895781edab84026831]
class TileRotation--><rect fill="#FEFECE" filter="url(#f19ucqmeg9vwdn)" height="48" id="TileRotation" style="stroke: #A80036; stroke-width: 1.5;" width="106" x="123" y="237"/><ellipse cx="138" cy="253" fill="#ADD1B2" rx="11" ry="11" style="stroke: #A80036; stroke-width: 1.0;"/><path d="M140.9688,258.6406 Q140.3906,258.9375 139.75,259.0781 Q139.1094,259.2344 138.4063,259.2344 Q135.9063,259.2344 134.5781,257.5938 Q133.2656,255.9375 133.2656,252.8125 Q133.2656,249.6875 134.5781,248.0313 Q135.9063,246.375 138.4063,246.375 Q139.1094,246.375 139.75,246.5313 Q140.4063,246.6875 140.9688,246.9844 L140.9688,249.7031 Q140.3438,249.125 139.75,248.8594 Q139.1563,248.5781 138.5313,248.5781 Q137.1875,248.5781 136.5,249.6563 Q135.8125,250.7188 135.8125,252.8125 Q135.8125,254.9063 136.5,255.9844 Q137.1875,257.0469 138.5313,257.0469 Q139.1563,257.0469 139.75,256.7813 Q140.3438,256.5 140.9688,255.9219 L140.9688,258.6406 Z "/><text fill="#000000" font-family="sans-serif" font-size="12" lengthAdjust="spacingAndGlyphs" textLength="74" x="152" y="257.1543">TileRotation</text><line style="stroke: #A80036; stroke-width: 1.5;" x1="124" x2="228" y1="269" y2="269"/><line style="stroke: #A80036; stroke-width: 1.5;" x1="124" x2="228" y1="277" y2="277"/><!--MD5=[4e88cbc3124b210b595c12624054c31d]
class SwitchState--><rect fill="#FEFECE" filter="url(#f19ucqmeg9vwdn)" height="48" id="SwitchState" style="stroke: #A80036; stroke-width: 1.5;" width="106" x="264" y="237"/><ellipse cx="279" cy="253" fill="#ADD1B2" rx="11" ry="11" style="stroke: #A80036; stroke-width: 1.0;"/><path d="M281.9688,258.6406 Q281.3906,258.9375 280.75,259.0781 Q280.1094,259.2344 279.4063,259.2344 Q276.9063,259.2344 275.5781,257.5938 Q274.2656,255.9375 274.2656,252.8125 Q274.2656,249.6875 275.5781,248.0313 Q276.9063,246.375 279.4063,246.375 Q280.1094,246.375 280.75,246.5313 Q281.4063,246.6875 281.9688,246.9844 L281.9688,249.7031 Q281.3438,249.125 280.75,248.8594 Q280.1563,248.5781 279.5313,248.5781 Q278.1875,248.5781 277.5,249.6563 Q276.8125,250.7188 276.8125,252.8125 Q276.8125,254.9063 277.5,255.9844 Q278.1875,257.0469 279.5313,257.0469 Q280.1563,257.0469 280.75,256.7813 Q281.3438,256.5 281.9688,255.9219 L281.9688,258.6406 Z "/><text fill="#000000" font-family="sans-serif" font-size="12" lengthAdjust="spacingAndGlyphs" textLength="74" x="293" y="257.1543">SwitchState</text><line style="stroke: #A80036; stroke-width: 1.5;" x1="265" x2="369" y1="269" y2="269"/><line style="stroke: #A80036; stroke-width: 1.5;" x1="265" x2="369" y1="277" y2="277"/><!--MD5=[e49b9f65deba2a0e6fd492e1917094e1]
class SwitchInputType--><rect fill="#FEFECE" filter="url(#f19ucqmeg9vwdn)" height="48" id="SwitchInputType" style="stroke: #A80036; stroke-width: 1.5;" width="133" x="405.5" y="237"/><ellipse cx="420.5" cy="253" fill="#ADD1B2" rx="11" ry="11" style="stroke: #A80036; stroke-width: 1.0;"/><path d="M423.4688,258.6406 Q422.8906,258.9375 422.25,259.0781 Q421.6094,259.2344 420.9063,259.2344 Q418.4063,259.2344 417.0781,257.5938 Q415.7656,255.9375 415.7656,252.8125 Q415.7656,249.6875 417.0781,248.0313 Q418.4063,246.375 420.9063,246.375 Q421.6094,246.375 422.25,246.5313 Q422.9063,246.6875 423.4688,246.9844 L423.4688,249.7031 Q422.8438,249.125 422.25,248.8594 Q421.6563,248.5781 421.0313,248.5781 Q419.6875,248.5781 419,249.6563 Q418.3125,250.7188 418.3125,252.8125 Q418.3125,254.9063 419,255.9844 Q419.6875,257.0469 421.0313,257.0469 Q421.6563,257.0469 422.25,256.7813 Q422.8438,256.5 423.4688,255.9219 L423.4688,258.6406 Z "/><text fill="#000000" font-family="sans-serif" font-size="12" lengthAdjust="spacingAndGlyphs" textLength="101" x="434.5" y="257.1543">SwitchInputType</text><line style="stroke: #A80036; stroke-width: 1.5;" x1="406.5" x2="537.5" y1="269" y2="269"/><line style="stroke: #A80036; stroke-width: 1.5;" x1="406.5" x2="537.5" y1="277" y2="277"/><!--MD5=[b88a455de1df82981c1837d6f8bbb57d]
reverse link MonoBehaviour to Tile--><path d="M246,76.11 C246,89.31 246,103.54 246,115.65 " fill="none" id="MonoBehaviour&lt;-Tile" style="stroke: #A80036; stroke-width: 1.0;"/><polygon fill="none" points="239,76.04,246,56.04,253,76.04,239,76.04" style="stroke: #A80036; stroke-width: 1.0;"/><!--MD5=[ab9e7e0c85c415e7be78dba6a028b295]
link Tile to TileType--><path d="M193.72,177.06 C162.21,194.87 122.49,217.32 92.33,234.37 " fill="none" id="Tile-&gt;TileType" style="stroke: #A80036; stroke-width: 1.0;"/><polygon fill="#A80036" points="87.95,236.85,97.7529,235.8995,92.3017,234.3878,93.8134,228.9367,87.95,236.85" style="stroke: #A80036; stroke-width: 1.0;"/><text fill="#000000" font-family="sans-serif" font-size="13" lengthAdjust="spacingAndGlyphs" textLength="49" x="43.1653" y="225.8236">tileType</text><!--MD5=[b949e94c10129c0093a813dad5600106]
link Tile to TileRotation--><path d="M227.61,177.06 C217.02,194.08 203.79,215.34 193.38,232.08 " fill="none" id="Tile-&gt;TileRotation" style="stroke: #A80036; stroke-width: 1.0;"/><polygon fill="#A80036" points="190.52,236.67,198.6736,231.1457,193.1636,232.426,191.8832,226.9159,190.52,236.67" style="stroke: #A80036; stroke-width: 1.0;"/><text fill="#000000" font-family="sans-serif" font-size="13" lengthAdjust="spacingAndGlyphs" textLength="72" x="113.2842" y="225.9945">tileRotation</text><!--MD5=[8e0547d29313b12a44df81f28d80707f]
link Tile to SwitchState--><path d="M264.65,177.06 C275.4,194.08 288.81,215.34 299.38,232.08 " fill="none" id="Tile-&gt;SwitchState" style="stroke: #A80036; stroke-width: 1.0;"/><polygon fill="#A80036" points="302.28,236.67,300.8784,226.9214,299.6197,232.4364,294.1047,231.1778,302.28,236.67" style="stroke: #A80036; stroke-width: 1.0;"/><text fill="#000000" font-family="sans-serif" font-size="13" lengthAdjust="spacingAndGlyphs" textLength="124" x="313.6542" y="225.9328">CurrentSwitchState</text><!--MD5=[56ed66580d78981a8854eaa97539cdca]
link Tile to SwitchInputType--><path d="M305.38,177.06 C341.3,194.94 386.63,217.51 420.94,234.58 " fill="none" id="Tile-&gt;SwitchInputType" style="stroke: #A80036; stroke-width: 1.0;"/><polygon fill="#A80036" points="425.49,236.85,419.2096,229.2634,421.0122,234.6253,415.6502,236.4279,425.49,236.85" style="stroke: #A80036; stroke-width: 1.0;"/><text fill="#000000" font-family="sans-serif" font-size="13" lengthAdjust="spacingAndGlyphs" textLength="151" x="432.9187" y="225.8236">CurrentSwitchInputType</text><!--MD5=[95a9a3c0879f9df59faab574731a92bb]
@startuml
class Tile {
    + {static} GetTileRotation(_tileRotation:TileRotation) : float
}
MonoBehaviour <|- - Tile
Tile - -> "tileType" TileType
Tile - -> "tileRotation" TileRotation
Tile - -> "CurrentSwitchState" SwitchState
Tile - -> "CurrentSwitchInputType" SwitchInputType
@enduml

PlantUML version 1.2020.02(Sun Mar 01 10:22:07 GMT 2020)
(GPL source distribution)
Java Runtime: OpenJDK Runtime Environment
JVM: OpenJDK 64-Bit Server VM
Java Version: 11.0.9+11-Ubuntu-0ubuntu1
Operating System: Linux
Default Encoding: ANSI_X3.4-1968
Language: en
Country: US
--></g></svg>