<?xml version="1.0" encoding="UTF-8" standalone="no"?><svg xmlns="http://www.w3.org/2000/svg" xmlns:xlink="http://www.w3.org/1999/xlink" contentScriptType="application/ecmascript" contentStyleType="text/css" height="398px" preserveAspectRatio="none" style="width:1096px;height:398px;" version="1.1" viewBox="0 0 1096 398" width="1096px" zoomAndPan="magnify"><defs><filter height="300%" id="fsp142wupdpf7" width="300%" x="-1" y="-1"><feGaussianBlur result="blurOut" stdDeviation="2.0"/><feColorMatrix in="blurOut" result="blurOut2" type="matrix" values="0 0 0 0 0 0 0 0 0 0 0 0 0 0 0 0 0 0 .4 0"/><feOffset dx="4.0" dy="4.0" in="blurOut2" result="blurOut3"/><feBlend in="SourceGraphic" in2="blurOut3" mode="normal"/></filter></defs><g><!--MD5=[6c2832111903468f1b8277faf508e3f6]
class DepthNormalsFeature--><rect fill="#FEFECE" filter="url(#fsp142wupdpf7)" height="73.6094" id="DepthNormalsFeature" style="stroke: #A80036; stroke-width: 1.5;" width="576" x="509.5" y="116"/><ellipse cx="724.25" cy="132" fill="#ADD1B2" rx="11" ry="11" style="stroke: #A80036; stroke-width: 1.0;"/><path d="M727.2188,137.6406 Q726.6406,137.9375 726,138.0781 Q725.3594,138.2344 724.6563,138.2344 Q722.1563,138.2344 720.8281,136.5938 Q719.5156,134.9375 719.5156,131.8125 Q719.5156,128.6875 720.8281,127.0313 Q722.1563,125.375 724.6563,125.375 Q725.3594,125.375 726,125.5313 Q726.6563,125.6875 727.2188,125.9844 L727.2188,128.7031 Q726.5938,128.125 726,127.8594 Q725.4063,127.5781 724.7813,127.5781 Q723.4375,127.5781 722.75,128.6563 Q722.0625,129.7188 722.0625,131.8125 Q722.0625,133.9063 722.75,134.9844 Q723.4375,136.0469 724.7813,136.0469 Q725.4063,136.0469 726,135.7813 Q726.5938,135.5 727.2188,134.9219 L727.2188,137.6406 Z "/><text fill="#000000" font-family="sans-serif" font-size="12" lengthAdjust="spacingAndGlyphs" textLength="138" x="744.75" y="136.1543">DepthNormalsFeature</text><line style="stroke: #A80036; stroke-width: 1.5;" x1="510.5" x2="1084.5" y1="148" y2="148"/><line style="stroke: #A80036; stroke-width: 1.5;" x1="510.5" x2="1084.5" y1="156" y2="156"/><ellipse cx="520.5" cy="167" fill="#84BE84" rx="3" ry="3" style="stroke: #038048; stroke-width: 1.0;"/><text fill="#000000" font-family="sans-serif" font-size="11" lengthAdjust="spacingAndGlyphs" textLength="146" x="529.5" y="170.2104">«override» Create() : void</text><ellipse cx="520.5" cy="179.8047" fill="#84BE84" rx="3" ry="3" style="stroke: #038048; stroke-width: 1.0;"/><text fill="#000000" font-family="sans-serif" font-size="11" lengthAdjust="spacingAndGlyphs" textLength="550" x="529.5" y="183.0151">«override» AddRenderPasses(renderer:ScriptableRenderer, renderingData:RenderingData) : void</text><!--MD5=[6d6b5034e7d1bbbb4fb6df790b1af670]
class DepthNormalsPass--><rect fill="#FEFECE" filter="url(#fsp142wupdpf7)" height="137.6328" id="DepthNormalsPass" style="stroke: #A80036; stroke-width: 1.5;" width="609" x="6" y="250"/><ellipse cx="246.75" cy="266" fill="#ADD1B2" rx="11" ry="11" style="stroke: #A80036; stroke-width: 1.0;"/><path d="M249.7188,271.6406 Q249.1406,271.9375 248.5,272.0781 Q247.8594,272.2344 247.1563,272.2344 Q244.6563,272.2344 243.3281,270.5938 Q242.0156,268.9375 242.0156,265.8125 Q242.0156,262.6875 243.3281,261.0313 Q244.6563,259.375 247.1563,259.375 Q247.8594,259.375 248.5,259.5313 Q249.1563,259.6875 249.7188,259.9844 L249.7188,262.7031 Q249.0938,262.125 248.5,261.8594 Q247.9063,261.5781 247.2813,261.5781 Q245.9375,261.5781 245.25,262.6563 Q244.5625,263.7188 244.5625,265.8125 Q244.5625,267.9063 245.25,268.9844 Q245.9375,270.0469 247.2813,270.0469 Q247.9063,270.0469 248.5,269.7813 Q249.0938,269.5 249.7188,268.9219 L249.7188,271.6406 Z "/><text fill="#000000" font-family="sans-serif" font-size="12" lengthAdjust="spacingAndGlyphs" textLength="119" x="267.25" y="270.1543">DepthNormalsPass</text><line style="stroke: #A80036; stroke-width: 1.5;" x1="7" x2="614" y1="282" y2="282"/><text fill="#000000" font-family="sans-serif" font-size="11" lengthAdjust="spacingAndGlyphs" textLength="153" x="12" y="296.2104">kDepthBufferBits : int = 32</text><text fill="#000000" font-family="sans-serif" font-size="11" lengthAdjust="spacingAndGlyphs" textLength="283" x="12" y="309.0151">m_ProfilerTag : string = "DepthNormals Prepass"</text><line style="stroke: #A80036; stroke-width: 1.5;" x1="7" x2="614" y1="315.6094" y2="315.6094"/><ellipse cx="17" cy="326.6094" fill="#84BE84" rx="3" ry="3" style="stroke: #038048; stroke-width: 1.0;"/><text fill="#000000" font-family="sans-serif" font-size="11" lengthAdjust="spacingAndGlyphs" textLength="576" x="26" y="329.8198">DepthNormalsPass(renderQueueRange:RenderQueueRange, layerMask:LayerMask, material:Material)</text><ellipse cx="17" cy="339.4141" fill="#84BE84" rx="3" ry="3" style="stroke: #038048; stroke-width: 1.0;"/><text fill="#000000" font-family="sans-serif" font-size="11" lengthAdjust="spacingAndGlyphs" textLength="572" x="26" y="342.6245">Setup(baseDescriptor:RenderTextureDescriptor, depthAttachmentHandle:RenderTargetHandle) : void</text><ellipse cx="17" cy="352.2188" fill="#84BE84" rx="3" ry="3" style="stroke: #038048; stroke-width: 1.0;"/><text fill="#000000" font-family="sans-serif" font-size="11" lengthAdjust="spacingAndGlyphs" textLength="583" x="26" y="355.4292">«override» Configure(cmd:CommandBuffer, cameraTextureDescriptor:RenderTextureDescriptor) : void</text><ellipse cx="17" cy="365.0234" fill="#84BE84" rx="3" ry="3" style="stroke: #038048; stroke-width: 1.0;"/><text fill="#000000" font-family="sans-serif" font-size="11" lengthAdjust="spacingAndGlyphs" textLength="513" x="26" y="368.2339">«override» Execute(context:ScriptableRenderContext, renderingData:RenderingData) : void</text><ellipse cx="17" cy="377.8281" fill="#84BE84" rx="3" ry="3" style="stroke: #038048; stroke-width: 1.0;"/><text fill="#000000" font-family="sans-serif" font-size="11" lengthAdjust="spacingAndGlyphs" textLength="311" x="26" y="381.0386">«override» FrameCleanup(cmd:CommandBuffer) : void</text><!--MD5=[b202f7a18881716b392e5c2ae4696a66]
class ScriptableRendererFeature--><rect fill="#FEFECE" filter="url(#fsp142wupdpf7)" height="48" id="ScriptableRendererFeature" style="stroke: #A80036; stroke-width: 1.5;" width="202" x="696.5" y="8"/><ellipse cx="711.5" cy="24" fill="#ADD1B2" rx="11" ry="11" style="stroke: #A80036; stroke-width: 1.0;"/><path d="M714.4688,29.6406 Q713.8906,29.9375 713.25,30.0781 Q712.6094,30.2344 711.9063,30.2344 Q709.4063,30.2344 708.0781,28.5938 Q706.7656,26.9375 706.7656,23.8125 Q706.7656,20.6875 708.0781,19.0313 Q709.4063,17.375 711.9063,17.375 Q712.6094,17.375 713.25,17.5313 Q713.9063,17.6875 714.4688,17.9844 L714.4688,20.7031 Q713.8438,20.125 713.25,19.8594 Q712.6563,19.5781 712.0313,19.5781 Q710.6875,19.5781 710,20.6563 Q709.3125,21.7188 709.3125,23.8125 Q709.3125,25.9063 710,26.9844 Q710.6875,28.0469 712.0313,28.0469 Q712.6563,28.0469 713.25,27.7813 Q713.8438,27.5 714.4688,26.9219 L714.4688,29.6406 Z "/><text fill="#000000" font-family="sans-serif" font-size="12" lengthAdjust="spacingAndGlyphs" textLength="170" x="725.5" y="28.1543">ScriptableRendererFeature</text><line style="stroke: #A80036; stroke-width: 1.5;" x1="697.5" x2="897.5" y1="40" y2="40"/><line style="stroke: #A80036; stroke-width: 1.5;" x1="697.5" x2="897.5" y1="48" y2="48"/><!--MD5=[5a16aa846974372e6f81fa750eb6bc8b]
class RenderTargetHandle--><rect fill="#FEFECE" filter="url(#fsp142wupdpf7)" height="48" id="RenderTargetHandle" style="stroke: #A80036; stroke-width: 1.5;" width="162" x="796.5" y="295"/><ellipse cx="811.5" cy="311" fill="#ADD1B2" rx="11" ry="11" style="stroke: #A80036; stroke-width: 1.0;"/><path d="M814.4688,316.6406 Q813.8906,316.9375 813.25,317.0781 Q812.6094,317.2344 811.9063,317.2344 Q809.4063,317.2344 808.0781,315.5938 Q806.7656,313.9375 806.7656,310.8125 Q806.7656,307.6875 808.0781,306.0313 Q809.4063,304.375 811.9063,304.375 Q812.6094,304.375 813.25,304.5313 Q813.9063,304.6875 814.4688,304.9844 L814.4688,307.7031 Q813.8438,307.125 813.25,306.8594 Q812.6563,306.5781 812.0313,306.5781 Q810.6875,306.5781 810,307.6563 Q809.3125,308.7188 809.3125,310.8125 Q809.3125,312.9063 810,313.9844 Q810.6875,315.0469 812.0313,315.0469 Q812.6563,315.0469 813.25,314.7813 Q813.8438,314.5 814.4688,313.9219 L814.4688,316.6406 Z "/><text fill="#000000" font-family="sans-serif" font-size="12" lengthAdjust="spacingAndGlyphs" textLength="130" x="825.5" y="315.1543">RenderTargetHandle</text><line style="stroke: #A80036; stroke-width: 1.5;" x1="797.5" x2="957.5" y1="327" y2="327"/><line style="stroke: #A80036; stroke-width: 1.5;" x1="797.5" x2="957.5" y1="335" y2="335"/><!--MD5=[90d32ccc189f11441a6ce7cbb63ad387]
class Material--><rect fill="#FEFECE" filter="url(#fsp142wupdpf7)" height="48" id="Material" style="stroke: #A80036; stroke-width: 1.5;" width="82" x="993.5" y="295"/><ellipse cx="1008.5" cy="311" fill="#ADD1B2" rx="11" ry="11" style="stroke: #A80036; stroke-width: 1.0;"/><path d="M1011.4688,316.6406 Q1010.8906,316.9375 1010.25,317.0781 Q1009.6094,317.2344 1008.9063,317.2344 Q1006.4063,317.2344 1005.0781,315.5938 Q1003.7656,313.9375 1003.7656,310.8125 Q1003.7656,307.6875 1005.0781,306.0313 Q1006.4063,304.375 1008.9063,304.375 Q1009.6094,304.375 1010.25,304.5313 Q1010.9063,304.6875 1011.4688,304.9844 L1011.4688,307.7031 Q1010.8438,307.125 1010.25,306.8594 Q1009.6563,306.5781 1009.0313,306.5781 Q1007.6875,306.5781 1007,307.6563 Q1006.3125,308.7188 1006.3125,310.8125 Q1006.3125,312.9063 1007,313.9844 Q1007.6875,315.0469 1009.0313,315.0469 Q1009.6563,315.0469 1010.25,314.7813 Q1010.8438,314.5 1011.4688,313.9219 L1011.4688,316.6406 Z "/><text fill="#000000" font-family="sans-serif" font-size="12" lengthAdjust="spacingAndGlyphs" textLength="50" x="1022.5" y="315.1543">Material</text><line style="stroke: #A80036; stroke-width: 1.5;" x1="994.5" x2="1074.5" y1="327" y2="327"/><line style="stroke: #A80036; stroke-width: 1.5;" x1="994.5" x2="1074.5" y1="335" y2="335"/><!--MD5=[0fbe8974acb3e83dacebc2b1b889f153]
class ScriptableRenderPass--><rect fill="#FEFECE" filter="url(#fsp142wupdpf7)" height="48" id="ScriptableRenderPass" style="stroke: #A80036; stroke-width: 1.5;" width="170" x="225.5" y="129"/><ellipse cx="240.5" cy="145" fill="#ADD1B2" rx="11" ry="11" style="stroke: #A80036; stroke-width: 1.0;"/><path d="M243.4688,150.6406 Q242.8906,150.9375 242.25,151.0781 Q241.6094,151.2344 240.9063,151.2344 Q238.4063,151.2344 237.0781,149.5938 Q235.7656,147.9375 235.7656,144.8125 Q235.7656,141.6875 237.0781,140.0313 Q238.4063,138.375 240.9063,138.375 Q241.6094,138.375 242.25,138.5313 Q242.9063,138.6875 243.4688,138.9844 L243.4688,141.7031 Q242.8438,141.125 242.25,140.8594 Q241.6563,140.5781 241.0313,140.5781 Q239.6875,140.5781 239,141.6563 Q238.3125,142.7188 238.3125,144.8125 Q238.3125,146.9063 239,147.9844 Q239.6875,149.0469 241.0313,149.0469 Q241.6563,149.0469 242.25,148.7813 Q242.8438,148.5 243.4688,147.9219 L243.4688,150.6406 Z "/><text fill="#000000" font-family="sans-serif" font-size="12" lengthAdjust="spacingAndGlyphs" textLength="138" x="254.5" y="149.1543">ScriptableRenderPass</text><line style="stroke: #A80036; stroke-width: 1.5;" x1="226.5" x2="394.5" y1="161" y2="161"/><line style="stroke: #A80036; stroke-width: 1.5;" x1="226.5" x2="394.5" y1="169" y2="169"/><!--MD5=[52c584aaee33dda9aafa8d73d44a6dd4]
class ShaderTagId--><rect fill="#FEFECE" filter="url(#fsp142wupdpf7)" height="48" id="ShaderTagId" style="stroke: #A80036; stroke-width: 1.5;" width="111" x="650" y="295"/><ellipse cx="665" cy="311" fill="#ADD1B2" rx="11" ry="11" style="stroke: #A80036; stroke-width: 1.0;"/><path d="M667.9688,316.6406 Q667.3906,316.9375 666.75,317.0781 Q666.1094,317.2344 665.4063,317.2344 Q662.9063,317.2344 661.5781,315.5938 Q660.2656,313.9375 660.2656,310.8125 Q660.2656,307.6875 661.5781,306.0313 Q662.9063,304.375 665.4063,304.375 Q666.1094,304.375 666.75,304.5313 Q667.4063,304.6875 667.9688,304.9844 L667.9688,307.7031 Q667.3438,307.125 666.75,306.8594 Q666.1563,306.5781 665.5313,306.5781 Q664.1875,306.5781 663.5,307.6563 Q662.8125,308.7188 662.8125,310.8125 Q662.8125,312.9063 663.5,313.9844 Q664.1875,315.0469 665.5313,315.0469 Q666.1563,315.0469 666.75,314.7813 Q667.3438,314.5 667.9688,313.9219 L667.9688,316.6406 Z "/><text fill="#000000" font-family="sans-serif" font-size="12" lengthAdjust="spacingAndGlyphs" textLength="79" x="679" y="315.1543">ShaderTagId</text><line style="stroke: #A80036; stroke-width: 1.5;" x1="651" x2="760" y1="327" y2="327"/><line style="stroke: #A80036; stroke-width: 1.5;" x1="651" x2="760" y1="335" y2="335"/><!--MD5=[3a530d8cfc1a84e2ccd07207f293db8f]
reverse link ScriptableRendererFeature to DepthNormalsFeature--><path d="M797.5,76.43 C797.5,89.33 797.5,103.32 797.5,115.71 " fill="none" id="ScriptableRendererFeature&lt;-DepthNormalsFeature" style="stroke: #A80036; stroke-width: 1.0;"/><polygon fill="none" points="790.5,76.23,797.5,56.23,804.5,76.23,790.5,76.23" style="stroke: #A80036; stroke-width: 1.0;"/><!--MD5=[13cedd441706a18b2105636144f62863]
link DepthNormalsFeature to DepthNormalsPass--><path d="M679.55,190.09 C627.1,207.2 564,228.24 504.91,248.28 " fill="none" id="DepthNormalsFeature-&gt;DepthNormalsPass" style="stroke: #A80036; stroke-width: 1.0;"/><polygon fill="#A80036" points="499.94,249.97,509.7464,250.8833,504.6777,248.3717,507.1892,243.303,499.94,249.97" style="stroke: #A80036; stroke-width: 1.0;"/><text fill="#000000" font-family="sans-serif" font-size="13" lengthAdjust="spacingAndGlyphs" textLength="121" x="392.2369" y="239.1705">depthNormalsPass</text><!--MD5=[20d1dbd0eccf6ed558ad7af2563713f1]
reverse link DepthNormalsFeature to DepthNormalsPass--><path d="M687.52,195.04 C639.58,211.66 581.72,231.31 525.85,249.97 " fill="none" id="DepthNormalsFeature&lt;-DepthNormalsPass" style="stroke: #A80036; stroke-width: 1.0;"/><ellipse cx="694.1739" cy="192.7179" fill="#FFFFFF" rx="8" ry="8" style="stroke: #A80036; stroke-width: 1.0;"/><line style="stroke: #A80036; stroke-width: 1.0;" x1="686.6178" x2="701.73" y1="195.3457" y2="190.09"/><line style="stroke: #A80036; stroke-width: 1.0;" x1="691.5461" x2="696.8018" y1="185.1618" y2="200.2739"/><!--MD5=[354f6af3b40fd540b3cfc24f04e16653]
link DepthNormalsFeature to RenderTargetHandle--><path d="M815.25,190.4 C829.96,220.55 850.55,262.76 863.96,290.24 " fill="none" id="DepthNormalsFeature-&gt;RenderTargetHandle" style="stroke: #A80036; stroke-width: 1.0;"/><polygon fill="#A80036" points="866.21,294.86,865.8383,285.0182,864.0083,290.3708,858.6556,288.5409,866.21,294.86" style="stroke: #A80036; stroke-width: 1.0;"/><text fill="#000000" font-family="sans-serif" font-size="13" lengthAdjust="spacingAndGlyphs" textLength="139" x="706.5076" y="283.8362">depthNormalsTexture</text><!--MD5=[00bd1c1eff75d056a098fda2e6fcf2b7]
link DepthNormalsFeature to Material--><path d="M879.87,190.09 C911.71,206.05 947.4,226.54 976.5,250 C991.06,261.74 1004.77,277.5 1015.2,290.89 " fill="none" id="DepthNormalsFeature-&gt;Material" style="stroke: #A80036; stroke-width: 1.0;"/><polygon fill="#A80036" points="1018.33,294.96,1016.0314,285.3831,1015.289,290.991,1009.6811,290.2487,1018.33,294.96" style="stroke: #A80036; stroke-width: 1.0;"/><text fill="#000000" font-family="sans-serif" font-size="13" lengthAdjust="spacingAndGlyphs" textLength="142" x="894.1157" y="283.9">depthNormalsMaterial</text><!--MD5=[71a5302234bd7729765ca7fd5ea556e3]
reverse link ScriptableRenderPass to DepthNormalsPass--><path d="M310.5,197.22 C310.5,213.37 310.5,232.12 310.5,249.96 " fill="none" id="ScriptableRenderPass&lt;-DepthNormalsPass" style="stroke: #A80036; stroke-width: 1.0;"/><polygon fill="none" points="303.5,197.15,310.5,177.15,317.5,197.15,303.5,197.15" style="stroke: #A80036; stroke-width: 1.0;"/><!--MD5=[c0d0ca043b83d213241931f67b131814]
link DepthNormalsPass to ShaderTagId--><path d="M627.24,319 C627.24,319 633.8,319 636.46,319 " fill="none" id="DepthNormalsPass-ShaderTagId" style="stroke: #A80036; stroke-width: 1.0;"/><polygon fill="#A80036" points="649.79,319,640.79,315,644.79,319,640.79,323,649.79,319" style="stroke: #A80036; stroke-width: 1.0;"/><line style="stroke: #A80036; stroke-width: 1.0;" x1="644.79" x2="636.79" y1="319" y2="319"/><polygon fill="#FFFFFF" points="615.24,319,621.24,323,627.24,319,621.24,315,615.24,319" style="stroke: #A80036; stroke-width: 1.0;"/><text fill="#000000" font-family="sans-serif" font-size="13" lengthAdjust="spacingAndGlyphs" textLength="100" x="543.393" y="290.516">m_ShaderTagId</text><!--MD5=[4fc284c354a6c5926328fb9401441731]
@startuml
class DepthNormalsFeature {
    + <<override>> Create() : void
    + <<override>> AddRenderPasses(renderer:ScriptableRenderer, renderingData:RenderingData) : void
}
class DepthNormalsPass {
    kDepthBufferBits : int = 32
    m_ProfilerTag : string = "DepthNormals Prepass"
    + DepthNormalsPass(renderQueueRange:RenderQueueRange, layerMask:LayerMask, material:Material)
    + Setup(baseDescriptor:RenderTextureDescriptor, depthAttachmentHandle:RenderTargetHandle) : void
    + <<override>> Configure(cmd:CommandBuffer, cameraTextureDescriptor:RenderTextureDescriptor) : void
    + <<override>> Execute(context:ScriptableRenderContext, renderingData:RenderingData) : void
    + <<override>> FrameCleanup(cmd:CommandBuffer) : void
}
ScriptableRendererFeature <|- - DepthNormalsFeature
DepthNormalsFeature - -> "depthNormalsPass" DepthNormalsPass
DepthNormalsFeature - -> "depthNormalsTexture" RenderTargetHandle
DepthNormalsFeature - -> "depthNormalsMaterial" Material
DepthNormalsFeature +- - DepthNormalsPass
ScriptableRenderPass <|- - DepthNormalsPass
DepthNormalsPass o-> "m_ShaderTagId" ShaderTagId
@enduml

PlantUML version 1.2020.02(Sun Mar 01 10:22:07 GMT 2020)
(GPL source distribution)
Java Runtime: OpenJDK Runtime Environment
JVM: OpenJDK 64-Bit Server VM
Java Version: 11.0.9+11-Ubuntu-0ubuntu1
Operating System: Linux
Default Encoding: ANSI_X3.4-1968
Language: en
Country: US
--></g></svg>