<?xml version="1.0" encoding="UTF-8" standalone="no"?><svg xmlns="http://www.w3.org/2000/svg" xmlns:xlink="http://www.w3.org/1999/xlink" contentScriptType="application/ecmascript" contentStyleType="text/css" height="481px" preserveAspectRatio="none" style="width:961px;height:481px;" version="1.1" viewBox="0 0 961 481" width="961px" zoomAndPan="magnify"><defs><filter height="300%" id="fl1lkt693geo0" width="300%" x="-1" y="-1"><feGaussianBlur result="blurOut" stdDeviation="2.0"/><feColorMatrix in="blurOut" result="blurOut2" type="matrix" values="0 0 0 0 0 0 0 0 0 0 0 0 0 0 0 0 0 0 .4 0"/><feOffset dx="4.0" dy="4.0" in="blurOut2" result="blurOut3"/><feBlend in="SourceGraphic" in2="blurOut3" mode="normal"/></filter></defs><g><!--MD5=[e998360a1e0bf32f8e4bda452b06085c]
class OutlineFeature--><rect fill="#FEFECE" filter="url(#fl1lkt693geo0)" height="73.6094" id="OutlineFeature" style="stroke: #A80036; stroke-width: 1.5;" width="576" x="211" y="116"/><ellipse cx="448.25" cy="132" fill="#ADD1B2" rx="11" ry="11" style="stroke: #A80036; stroke-width: 1.0;"/><path d="M451.2188,137.6406 Q450.6406,137.9375 450,138.0781 Q449.3594,138.2344 448.6563,138.2344 Q446.1563,138.2344 444.8281,136.5938 Q443.5156,134.9375 443.5156,131.8125 Q443.5156,128.6875 444.8281,127.0313 Q446.1563,125.375 448.6563,125.375 Q449.3594,125.375 450,125.5313 Q450.6563,125.6875 451.2188,125.9844 L451.2188,128.7031 Q450.5938,128.125 450,127.8594 Q449.4063,127.5781 448.7813,127.5781 Q447.4375,127.5781 446.75,128.6563 Q446.0625,129.7188 446.0625,131.8125 Q446.0625,133.9063 446.75,134.9844 Q447.4375,136.0469 448.7813,136.0469 Q449.4063,136.0469 450,135.7813 Q450.5938,135.5 451.2188,134.9219 L451.2188,137.6406 Z "/><text fill="#000000" font-family="sans-serif" font-size="12" lengthAdjust="spacingAndGlyphs" textLength="93" x="468.75" y="136.1543">OutlineFeature</text><line style="stroke: #A80036; stroke-width: 1.5;" x1="212" x2="786" y1="148" y2="148"/><line style="stroke: #A80036; stroke-width: 1.5;" x1="212" x2="786" y1="156" y2="156"/><ellipse cx="222" cy="167" fill="#84BE84" rx="3" ry="3" style="stroke: #038048; stroke-width: 1.0;"/><text fill="#000000" font-family="sans-serif" font-size="11" lengthAdjust="spacingAndGlyphs" textLength="146" x="231" y="170.2104">«override» Create() : void</text><ellipse cx="222" cy="179.8047" fill="#84BE84" rx="3" ry="3" style="stroke: #038048; stroke-width: 1.0;"/><text fill="#000000" font-family="sans-serif" font-size="11" lengthAdjust="spacingAndGlyphs" textLength="550" x="231" y="183.0151">«override» AddRenderPasses(renderer:ScriptableRenderer, renderingData:RenderingData) : void</text><!--MD5=[c00cf47e08ee36ab679519240aff36ab]
class OutlinePass--><rect fill="#FEFECE" filter="url(#fl1lkt693geo0)" height="112.0234" id="OutlinePass" style="stroke: #A80036; stroke-width: 1.5;" width="609" x="130.5" y="250"/><ellipse cx="393.75" cy="266" fill="#ADD1B2" rx="11" ry="11" style="stroke: #A80036; stroke-width: 1.0;"/><path d="M396.7188,271.6406 Q396.1406,271.9375 395.5,272.0781 Q394.8594,272.2344 394.1563,272.2344 Q391.6563,272.2344 390.3281,270.5938 Q389.0156,268.9375 389.0156,265.8125 Q389.0156,262.6875 390.3281,261.0313 Q391.6563,259.375 394.1563,259.375 Q394.8594,259.375 395.5,259.5313 Q396.1563,259.6875 396.7188,259.9844 L396.7188,262.7031 Q396.0938,262.125 395.5,261.8594 Q394.9063,261.5781 394.2813,261.5781 Q392.9375,261.5781 392.25,262.6563 Q391.5625,263.7188 391.5625,265.8125 Q391.5625,267.9063 392.25,268.9844 Q392.9375,270.0469 394.2813,270.0469 Q394.9063,270.0469 395.5,269.7813 Q396.0938,269.5 396.7188,268.9219 L396.7188,271.6406 Z "/><text fill="#000000" font-family="sans-serif" font-size="12" lengthAdjust="spacingAndGlyphs" textLength="74" x="414.25" y="270.1543">OutlinePass</text><line style="stroke: #A80036; stroke-width: 1.5;" x1="131.5" x2="738.5" y1="282" y2="282"/><line style="stroke: #A80036; stroke-width: 1.5;" x1="131.5" x2="738.5" y1="290" y2="290"/><ellipse cx="141.5" cy="301" fill="#84BE84" rx="3" ry="3" style="stroke: #038048; stroke-width: 1.0;"/><text fill="#000000" font-family="sans-serif" font-size="11" lengthAdjust="spacingAndGlyphs" textLength="437" x="150.5" y="304.2104">Setup(source:RenderTargetIdentifier, destination:RenderTargetHandle) : void</text><ellipse cx="141.5" cy="313.8047" fill="#84BE84" rx="3" ry="3" style="stroke: #038048; stroke-width: 1.0;"/><text fill="#000000" font-family="sans-serif" font-size="11" lengthAdjust="spacingAndGlyphs" textLength="208" x="150.5" y="317.0151">OutlinePass(outlineMaterial:Material)</text><ellipse cx="141.5" cy="326.6094" fill="#84BE84" rx="3" ry="3" style="stroke: #038048; stroke-width: 1.0;"/><text fill="#000000" font-family="sans-serif" font-size="11" lengthAdjust="spacingAndGlyphs" textLength="583" x="150.5" y="329.8198">«override» Configure(cmd:CommandBuffer, cameraTextureDescriptor:RenderTextureDescriptor) : void</text><ellipse cx="141.5" cy="339.4141" fill="#84BE84" rx="3" ry="3" style="stroke: #038048; stroke-width: 1.0;"/><text fill="#000000" font-family="sans-serif" font-size="11" lengthAdjust="spacingAndGlyphs" textLength="513" x="150.5" y="342.6245">«override» Execute(context:ScriptableRenderContext, renderingData:RenderingData) : void</text><ellipse cx="141.5" cy="352.2188" fill="#84BE84" rx="3" ry="3" style="stroke: #038048; stroke-width: 1.0;"/><text fill="#000000" font-family="sans-serif" font-size="11" lengthAdjust="spacingAndGlyphs" textLength="311" x="150.5" y="355.4292">«override» FrameCleanup(cmd:CommandBuffer) : void</text><!--MD5=[3cdb7e76afc55977faa866e843f0dd64]
class OutlineSettings--><rect fill="#FEFECE" filter="url(#fl1lkt693geo0)" height="48" id="OutlineSettings" style="stroke: #A80036; stroke-width: 1.5;" width="128" x="822" y="129"/><ellipse cx="837" cy="145" fill="#ADD1B2" rx="11" ry="11" style="stroke: #A80036; stroke-width: 1.0;"/><path d="M839.9688,150.6406 Q839.3906,150.9375 838.75,151.0781 Q838.1094,151.2344 837.4063,151.2344 Q834.9063,151.2344 833.5781,149.5938 Q832.2656,147.9375 832.2656,144.8125 Q832.2656,141.6875 833.5781,140.0313 Q834.9063,138.375 837.4063,138.375 Q838.1094,138.375 838.75,138.5313 Q839.4063,138.6875 839.9688,138.9844 L839.9688,141.7031 Q839.3438,141.125 838.75,140.8594 Q838.1563,140.5781 837.5313,140.5781 Q836.1875,140.5781 835.5,141.6563 Q834.8125,142.7188 834.8125,144.8125 Q834.8125,146.9063 835.5,147.9844 Q836.1875,149.0469 837.5313,149.0469 Q838.1563,149.0469 838.75,148.7813 Q839.3438,148.5 839.9688,147.9219 L839.9688,150.6406 Z "/><text fill="#000000" font-family="sans-serif" font-size="12" lengthAdjust="spacingAndGlyphs" textLength="96" x="851" y="149.1543">OutlineSettings</text><line style="stroke: #A80036; stroke-width: 1.5;" x1="823" x2="949" y1="161" y2="161"/><line style="stroke: #A80036; stroke-width: 1.5;" x1="823" x2="949" y1="169" y2="169"/><!--MD5=[b202f7a18881716b392e5c2ae4696a66]
class ScriptableRendererFeature--><rect fill="#FEFECE" filter="url(#fl1lkt693geo0)" height="48" id="ScriptableRendererFeature" style="stroke: #A80036; stroke-width: 1.5;" width="202" x="398" y="8"/><ellipse cx="413" cy="24" fill="#ADD1B2" rx="11" ry="11" style="stroke: #A80036; stroke-width: 1.0;"/><path d="M415.9688,29.6406 Q415.3906,29.9375 414.75,30.0781 Q414.1094,30.2344 413.4063,30.2344 Q410.9063,30.2344 409.5781,28.5938 Q408.2656,26.9375 408.2656,23.8125 Q408.2656,20.6875 409.5781,19.0313 Q410.9063,17.375 413.4063,17.375 Q414.1094,17.375 414.75,17.5313 Q415.4063,17.6875 415.9688,17.9844 L415.9688,20.7031 Q415.3438,20.125 414.75,19.8594 Q414.1563,19.5781 413.5313,19.5781 Q412.1875,19.5781 411.5,20.6563 Q410.8125,21.7188 410.8125,23.8125 Q410.8125,25.9063 411.5,26.9844 Q412.1875,28.0469 413.5313,28.0469 Q414.1563,28.0469 414.75,27.7813 Q415.3438,27.5 415.9688,26.9219 L415.9688,29.6406 Z "/><text fill="#000000" font-family="sans-serif" font-size="12" lengthAdjust="spacingAndGlyphs" textLength="170" x="427" y="28.1543">ScriptableRendererFeature</text><line style="stroke: #A80036; stroke-width: 1.5;" x1="399" x2="599" y1="40" y2="40"/><line style="stroke: #A80036; stroke-width: 1.5;" x1="399" x2="599" y1="48" y2="48"/><!--MD5=[5a16aa846974372e6f81fa750eb6bc8b]
class RenderTargetHandle--><rect fill="#FEFECE" filter="url(#fl1lkt693geo0)" height="48" id="RenderTargetHandle" style="stroke: #A80036; stroke-width: 1.5;" width="162" x="532" y="422"/><ellipse cx="547" cy="438" fill="#ADD1B2" rx="11" ry="11" style="stroke: #A80036; stroke-width: 1.0;"/><path d="M549.9688,443.6406 Q549.3906,443.9375 548.75,444.0781 Q548.1094,444.2344 547.4063,444.2344 Q544.9063,444.2344 543.5781,442.5938 Q542.2656,440.9375 542.2656,437.8125 Q542.2656,434.6875 543.5781,433.0313 Q544.9063,431.375 547.4063,431.375 Q548.1094,431.375 548.75,431.5313 Q549.4063,431.6875 549.9688,431.9844 L549.9688,434.7031 Q549.3438,434.125 548.75,433.8594 Q548.1563,433.5781 547.5313,433.5781 Q546.1875,433.5781 545.5,434.6563 Q544.8125,435.7188 544.8125,437.8125 Q544.8125,439.9063 545.5,440.9844 Q546.1875,442.0469 547.5313,442.0469 Q548.1563,442.0469 548.75,441.7813 Q549.3438,441.5 549.9688,440.9219 L549.9688,443.6406 Z "/><text fill="#000000" font-family="sans-serif" font-size="12" lengthAdjust="spacingAndGlyphs" textLength="130" x="561" y="442.1543">RenderTargetHandle</text><line style="stroke: #A80036; stroke-width: 1.5;" x1="533" x2="693" y1="454" y2="454"/><line style="stroke: #A80036; stroke-width: 1.5;" x1="533" x2="693" y1="462" y2="462"/><!--MD5=[0fbe8974acb3e83dacebc2b1b889f153]
class ScriptableRenderPass--><rect fill="#FEFECE" filter="url(#fl1lkt693geo0)" height="48" id="ScriptableRenderPass" style="stroke: #A80036; stroke-width: 1.5;" width="170" x="6" y="129"/><ellipse cx="21" cy="145" fill="#ADD1B2" rx="11" ry="11" style="stroke: #A80036; stroke-width: 1.0;"/><path d="M23.9688,150.6406 Q23.3906,150.9375 22.75,151.0781 Q22.1094,151.2344 21.4063,151.2344 Q18.9063,151.2344 17.5781,149.5938 Q16.2656,147.9375 16.2656,144.8125 Q16.2656,141.6875 17.5781,140.0313 Q18.9063,138.375 21.4063,138.375 Q22.1094,138.375 22.75,138.5313 Q23.4063,138.6875 23.9688,138.9844 L23.9688,141.7031 Q23.3438,141.125 22.75,140.8594 Q22.1563,140.5781 21.5313,140.5781 Q20.1875,140.5781 19.5,141.6563 Q18.8125,142.7188 18.8125,144.8125 Q18.8125,146.9063 19.5,147.9844 Q20.1875,149.0469 21.5313,149.0469 Q22.1563,149.0469 22.75,148.7813 Q23.3438,148.5 23.9688,147.9219 L23.9688,150.6406 Z "/><text fill="#000000" font-family="sans-serif" font-size="12" lengthAdjust="spacingAndGlyphs" textLength="138" x="35" y="149.1543">ScriptableRenderPass</text><line style="stroke: #A80036; stroke-width: 1.5;" x1="7" x2="175" y1="161" y2="161"/><line style="stroke: #A80036; stroke-width: 1.5;" x1="7" x2="175" y1="169" y2="169"/><!--MD5=[90d32ccc189f11441a6ce7cbb63ad387]
class Material--><rect fill="#FEFECE" filter="url(#fl1lkt693geo0)" height="48" id="Material" style="stroke: #A80036; stroke-width: 1.5;" width="82" x="845" y="282"/><ellipse cx="860" cy="298" fill="#ADD1B2" rx="11" ry="11" style="stroke: #A80036; stroke-width: 1.0;"/><path d="M862.9688,303.6406 Q862.3906,303.9375 861.75,304.0781 Q861.1094,304.2344 860.4063,304.2344 Q857.9063,304.2344 856.5781,302.5938 Q855.2656,300.9375 855.2656,297.8125 Q855.2656,294.6875 856.5781,293.0313 Q857.9063,291.375 860.4063,291.375 Q861.1094,291.375 861.75,291.5313 Q862.4063,291.6875 862.9688,291.9844 L862.9688,294.7031 Q862.3438,294.125 861.75,293.8594 Q861.1563,293.5781 860.5313,293.5781 Q859.1875,293.5781 858.5,294.6563 Q857.8125,295.7188 857.8125,297.8125 Q857.8125,299.9063 858.5,300.9844 Q859.1875,302.0469 860.5313,302.0469 Q861.1563,302.0469 861.75,301.7813 Q862.3438,301.5 862.9688,300.9219 L862.9688,303.6406 Z "/><text fill="#000000" font-family="sans-serif" font-size="12" lengthAdjust="spacingAndGlyphs" textLength="50" x="874" y="302.1543">Material</text><line style="stroke: #A80036; stroke-width: 1.5;" x1="846" x2="926" y1="314" y2="314"/><line style="stroke: #A80036; stroke-width: 1.5;" x1="846" x2="926" y1="322" y2="322"/><!--MD5=[4d415fc578dd98fb31d3b932e9b3726b]
reverse link ScriptableRendererFeature to OutlineFeature--><path d="M499,76.43 C499,89.33 499,103.32 499,115.71 " fill="none" id="ScriptableRendererFeature&lt;-OutlineFeature" style="stroke: #A80036; stroke-width: 1.0;"/><polygon fill="none" points="492,76.23,499,56.23,506,76.23,492,76.23" style="stroke: #A80036; stroke-width: 1.0;"/><!--MD5=[38e4269c3b27b1e6a0729ed9984f8f53]
link OutlineFeature to OutlineSettings--><path d="M799.2272,172.2999 C799.2272,172.2999 805.8,171.24 808.59,170.76 " fill="none" id="OutlineFeature-OutlineSettings" style="stroke: #A80036; stroke-width: 1.0;"/><polygon fill="#A80036" points="821.65,168.39,812.0789,166.0673,816.7309,169.2859,813.5123,173.9378,821.65,168.39" style="stroke: #A80036; stroke-width: 1.0;"/><line style="stroke: #A80036; stroke-width: 1.0;" x1="816.7309" x2="808.865" y1="169.2859" y2="170.715"/><polygon fill="#FFFFFF" points="787.36,174.08,793.887,177.1457,799.2272,172.2999,792.7003,169.2342,787.36,174.08" style="stroke: #A80036; stroke-width: 1.0;"/><text fill="#000000" font-family="sans-serif" font-size="13" lengthAdjust="spacingAndGlyphs" textLength="51" x="762.3801" y="192.8858">settings</text><!--MD5=[c8230d79dd689755e3c720d77c36c62f]
reverse link OutlineFeature to OutlineSettings--><path d="M802.36,134.2 C808.79,135.24 815.22,136.38 821.65,137.61 " fill="none" id="OutlineFeature&lt;-OutlineSettings" style="stroke: #A80036; stroke-width: 1.0;"/><ellipse cx="795.2689" cy="133.1239" fill="#FFFFFF" rx="8" ry="8" style="stroke: #A80036; stroke-width: 1.0;"/><line style="stroke: #A80036; stroke-width: 1.0;" x1="803.1778" x2="787.36" y1="134.3277" y2="131.92"/><line style="stroke: #A80036; stroke-width: 1.0;" x1="794.065" x2="796.4728" y1="141.0328" y2="125.215"/><!--MD5=[3e86a614b218ce0fd3460b58009e981f]
link OutlineFeature to OutlinePass--><path d="M472.6,190.17 C464.06,206.66 455.12,226.62 447.83,245.24 " fill="none" id="OutlineFeature-&gt;OutlinePass" style="stroke: #A80036; stroke-width: 1.0;"/><polygon fill="#A80036" points="446.01,249.95,452.9856,242.9973,447.8126,245.2862,445.5236,240.1132,446.01,249.95" style="stroke: #A80036; stroke-width: 1.0;"/><text fill="#000000" font-family="sans-serif" font-size="13" lengthAdjust="spacingAndGlyphs" textLength="73" x="369.7441" y="238.8816">outlinePass</text><!--MD5=[2f6f1fa94801ca9a26007a1861bc542c]
reverse link OutlineFeature to OutlinePass--><path d="M490.34,204.71 C484.99,219.25 478.32,235.16 471.38,249.95 " fill="none" id="OutlineFeature&lt;-OutlinePass" style="stroke: #A80036; stroke-width: 1.0;"/><ellipse cx="492.7689" cy="197.7284" fill="#FFFFFF" rx="8" ry="8" style="stroke: #A80036; stroke-width: 1.0;"/><line style="stroke: #A80036; stroke-width: 1.0;" x1="490.1479" x2="495.39" y1="205.2869" y2="190.17"/><line style="stroke: #A80036; stroke-width: 1.0;" x1="485.2105" x2="500.3274" y1="195.1074" y2="200.3495"/><!--MD5=[96b53a34f5c3d9a29cf7ce578c51c164]
link OutlineFeature to RenderTargetHandle--><path d="M682.06,190.1 C711.56,204.03 738.45,223.31 757,250 C785.41,290.88 781.9,318.9 757,362 C741.85,388.22 714.93,406.89 688.43,419.79 " fill="none" id="OutlineFeature-&gt;RenderTargetHandle" style="stroke: #A80036; stroke-width: 1.0;"/><polygon fill="#A80036" points="683.84,421.97,693.6858,421.7241,688.3569,419.8259,690.2552,414.497,683.84,421.97" style="stroke: #A80036; stroke-width: 1.0;"/><text fill="#000000" font-family="sans-serif" font-size="13" lengthAdjust="spacingAndGlyphs" textLength="91" x="599.3334" y="410.9743">outlineTexture</text><!--MD5=[44b9c6934c7d92cfdf295b1e5cd504eb]
reverse link ScriptableRenderPass to OutlinePass--><path d="M162.19,185.25 C204.7,203.91 259.91,228.14 309.53,249.92 " fill="none" id="ScriptableRenderPass&lt;-OutlinePass" style="stroke: #A80036; stroke-width: 1.0;"/><polygon fill="none" points="159.12,191.55,143.62,177.1,164.75,178.73,159.12,191.55" style="stroke: #A80036; stroke-width: 1.0;"/><!--MD5=[923da3194fa0b1ce3655a4da4de80e82]
link OutlinePass to Material--><path d="M751.78,306 C751.78,306 805.36,306 831.58,306 " fill="none" id="OutlinePass-Material" style="stroke: #A80036; stroke-width: 1.0;"/><polygon fill="#A80036" points="844.87,306,835.87,302,839.87,306,835.87,310,844.87,306" style="stroke: #A80036; stroke-width: 1.0;"/><line style="stroke: #A80036; stroke-width: 1.0;" x1="839.87" x2="831.87" y1="306" y2="306"/><polygon fill="#FFFFFF" points="739.78,306,745.78,310,751.78,306,745.78,302,739.78,306" style="stroke: #A80036; stroke-width: 1.0;"/><text fill="#000000" font-family="sans-serif" font-size="13" lengthAdjust="spacingAndGlyphs" textLength="94" x="743.0209" y="302.4048">outlineMaterial</text><!--MD5=[48ea45caae033ccdb3a77acd0859eacf]
link OutlinePass to RenderTargetHandle--><path d="M506.12,362.14 C531.36,381.7 558.59,402.82 579.26,418.84 " fill="none" id="OutlinePass-&gt;RenderTargetHandle" style="stroke: #A80036; stroke-width: 1.0;"/><polygon fill="#A80036" points="583.3,421.97,578.6385,413.2941,579.3486,418.9062,573.7365,419.6164,583.3,421.97" style="stroke: #A80036; stroke-width: 1.0;"/><text fill="#000000" font-family="sans-serif" font-size="13" lengthAdjust="spacingAndGlyphs" textLength="148" x="408.7269" y="410.9743">temporaryColorTexture</text><!--MD5=[e59740b9b078200f1b18b18e790306df]
link OutlineSettings to Material--><path d="M886,189.26 C886,189.26 886,245.14 886,268.91 " fill="none" id="OutlineSettings-Material" style="stroke: #A80036; stroke-width: 1.0;"/><polygon fill="#A80036" points="886,281.96,890,272.96,886,276.96,882,272.96,886,281.96" style="stroke: #A80036; stroke-width: 1.0;"/><line style="stroke: #A80036; stroke-width: 1.0;" x1="886" x2="886" y1="276.96" y2="268.96"/><polygon fill="#FFFFFF" points="886,177.26,882,183.26,886,189.26,890,183.26,886,177.26" style="stroke: #A80036; stroke-width: 1.0;"/><text fill="#000000" font-family="sans-serif" font-size="13" lengthAdjust="spacingAndGlyphs" textLength="94" x="779.9563" y="270.9618">outlineMaterial</text><!--MD5=[9e8416728db9b21ecc9a2cda674a6f35]
@startuml
class OutlineFeature {
    + <<override>> Create() : void
    + <<override>> AddRenderPasses(renderer:ScriptableRenderer, renderingData:RenderingData) : void
}
class OutlinePass {
    + Setup(source:RenderTargetIdentifier, destination:RenderTargetHandle) : void
    + OutlinePass(outlineMaterial:Material)
    + <<override>> Configure(cmd:CommandBuffer, cameraTextureDescriptor:RenderTextureDescriptor) : void
    + <<override>> Execute(context:ScriptableRenderContext, renderingData:RenderingData) : void
    + <<override>> FrameCleanup(cmd:CommandBuffer) : void
}
class OutlineSettings {
}
ScriptableRendererFeature <|- - OutlineFeature
OutlineFeature o-> "settings" OutlineSettings
OutlineFeature - -> "outlinePass" OutlinePass
OutlineFeature - -> "outlineTexture" RenderTargetHandle
OutlineFeature +- - OutlinePass
ScriptableRenderPass <|- - OutlinePass
OutlinePass o-> "outlineMaterial" Material
OutlinePass - -> "temporaryColorTexture" RenderTargetHandle
OutlineFeature +- - OutlineSettings
OutlineSettings o-> "outlineMaterial" Material
@enduml

PlantUML version 1.2020.02(Sun Mar 01 10:22:07 GMT 2020)
(GPL source distribution)
Java Runtime: OpenJDK Runtime Environment
JVM: OpenJDK 64-Bit Server VM
Java Version: 11.0.9+11-Ubuntu-0ubuntu1
Operating System: Linux
Default Encoding: ANSI_X3.4-1968
Language: en
Country: US
--></g></svg>