<?xml version="1.0" encoding="UTF-8" standalone="no"?><svg xmlns="http://www.w3.org/2000/svg" xmlns:xlink="http://www.w3.org/1999/xlink" contentScriptType="application/ecmascript" contentStyleType="text/css" height="200px" preserveAspectRatio="none" style="width:145px;height:200px;" version="1.1" viewBox="0 0 145 200" width="145px" zoomAndPan="magnify"><defs><filter height="300%" id="fix4mly1b355" width="300%" x="-1" y="-1"><feGaussianBlur result="blurOut" stdDeviation="2.0"/><feColorMatrix in="blurOut" result="blurOut2" type="matrix" values="0 0 0 0 0 0 0 0 0 0 0 0 0 0 0 0 0 0 .4 0"/><feOffset dx="4.0" dy="4.0" in="blurOut2" result="blurOut3"/><feBlend in="SourceGraphic" in2="blurOut3" mode="normal"/></filter></defs><g><!--MD5=[2fa2e6c8d96871201c4f0ee09c3e8737]
class InventoryItem--><rect fill="#FEFECE" filter="url(#fix4mly1b355)" height="73.6094" id="InventoryItem" style="stroke: #A80036; stroke-width: 1.5;" width="116" x="12" y="116"/><ellipse cx="27" cy="132" fill="#ADD1B2" rx="11" ry="11" style="stroke: #A80036; stroke-width: 1.0;"/><path d="M29.9688,137.6406 Q29.3906,137.9375 28.75,138.0781 Q28.1094,138.2344 27.4063,138.2344 Q24.9063,138.2344 23.5781,136.5938 Q22.2656,134.9375 22.2656,131.8125 Q22.2656,128.6875 23.5781,127.0313 Q24.9063,125.375 27.4063,125.375 Q28.1094,125.375 28.75,125.5313 Q29.4063,125.6875 29.9688,125.9844 L29.9688,128.7031 Q29.3438,128.125 28.75,127.8594 Q28.1563,127.5781 27.5313,127.5781 Q26.1875,127.5781 25.5,128.6563 Q24.8125,129.7188 24.8125,131.8125 Q24.8125,133.9063 25.5,134.9844 Q26.1875,136.0469 27.5313,136.0469 Q28.1563,136.0469 28.75,135.7813 Q29.3438,135.5 29.9688,134.9219 L29.9688,137.6406 Z "/><text fill="#000000" font-family="sans-serif" font-size="12" lengthAdjust="spacingAndGlyphs" textLength="84" x="41" y="136.1543">InventoryItem</text><line style="stroke: #A80036; stroke-width: 1.5;" x1="13" x2="127" y1="148" y2="148"/><ellipse cx="23" cy="159" fill="none" rx="3" ry="3" style="stroke: #038048; stroke-width: 1.0;"/><text fill="#000000" font-family="sans-serif" font-size="11" lengthAdjust="spacingAndGlyphs" textLength="70" x="32" y="162.2104">tileType : int</text><line style="stroke: #A80036; stroke-width: 1.5;" x1="13" x2="127" y1="168.8047" y2="168.8047"/><ellipse cx="23" cy="179.8047" fill="#84BE84" rx="3" ry="3" style="stroke: #038048; stroke-width: 1.0;"/><text fill="#000000" font-family="sans-serif" font-size="11" lengthAdjust="spacingAndGlyphs" textLength="78" x="32" y="183.0151">Select() : void</text><!--MD5=[83b3cf3d23d77c6f1e1b5291a241bc2a]
class MonoBehaviour--><rect fill="#FEFECE" filter="url(#fix4mly1b355)" height="48" id="MonoBehaviour" style="stroke: #A80036; stroke-width: 1.5;" width="128" x="6" y="8"/><ellipse cx="21" cy="24" fill="#ADD1B2" rx="11" ry="11" style="stroke: #A80036; stroke-width: 1.0;"/><path d="M23.9688,29.6406 Q23.3906,29.9375 22.75,30.0781 Q22.1094,30.2344 21.4063,30.2344 Q18.9063,30.2344 17.5781,28.5938 Q16.2656,26.9375 16.2656,23.8125 Q16.2656,20.6875 17.5781,19.0313 Q18.9063,17.375 21.4063,17.375 Q22.1094,17.375 22.75,17.5313 Q23.4063,17.6875 23.9688,17.9844 L23.9688,20.7031 Q23.3438,20.125 22.75,19.8594 Q22.1563,19.5781 21.5313,19.5781 Q20.1875,19.5781 19.5,20.6563 Q18.8125,21.7188 18.8125,23.8125 Q18.8125,25.9063 19.5,26.9844 Q20.1875,28.0469 21.5313,28.0469 Q22.1563,28.0469 22.75,27.7813 Q23.3438,27.5 23.9688,26.9219 L23.9688,29.6406 Z "/><text fill="#000000" font-family="sans-serif" font-size="12" lengthAdjust="spacingAndGlyphs" textLength="96" x="35" y="28.1543">MonoBehaviour</text><line style="stroke: #A80036; stroke-width: 1.5;" x1="7" x2="133" y1="40" y2="40"/><line style="stroke: #A80036; stroke-width: 1.5;" x1="7" x2="133" y1="48" y2="48"/><!--MD5=[0d7a798f368b39f6d67566cab2c452fa]
reverse link MonoBehaviour to InventoryItem--><path d="M70,76.43 C70,89.33 70,103.32 70,115.71 " fill="none" id="MonoBehaviour&lt;-InventoryItem" style="stroke: #A80036; stroke-width: 1.0;"/><polygon fill="none" points="63,76.23,70,56.23,77,76.23,63,76.23" style="stroke: #A80036; stroke-width: 1.0;"/><!--MD5=[9b81a2d18757f48673cf1e38437fbf19]
@startuml
class InventoryItem {
    + tileType : int
    + Select() : void
}
MonoBehaviour <|- - InventoryItem
@enduml

PlantUML version 1.2020.02(Sun Mar 01 10:22:07 GMT 2020)
(GPL source distribution)
Java Runtime: OpenJDK Runtime Environment
JVM: OpenJDK 64-Bit Server VM
Java Version: 11.0.9+11-Ubuntu-0ubuntu1
Operating System: Linux
Default Encoding: ANSI_X3.4-1968
Language: en
Country: US
--></g></svg>