<?xml version="1.0" encoding="UTF-8" standalone="no"?><svg xmlns="http://www.w3.org/2000/svg" xmlns:xlink="http://www.w3.org/1999/xlink" contentScriptType="application/ecmascript" contentStyleType="text/css" height="187px" preserveAspectRatio="none" style="width:258px;height:187px;" version="1.1" viewBox="0 0 258 187" width="258px" zoomAndPan="magnify"><defs><filter height="300%" id="f8o1jvd5ucj23" width="300%" x="-1" y="-1"><feGaussianBlur result="blurOut" stdDeviation="2.0"/><feColorMatrix in="blurOut" result="blurOut2" type="matrix" values="0 0 0 0 0 0 0 0 0 0 0 0 0 0 0 0 0 0 .4 0"/><feOffset dx="4.0" dy="4.0" in="blurOut2" result="blurOut3"/><feBlend in="SourceGraphic" in2="blurOut3" mode="normal"/></filter></defs><g><!--MD5=[578e85ed2e30530b84fb5a54f089f836]
class PreviewGenerator--><rect fill="#FEFECE" filter="url(#f8o1jvd5ucj23)" height="60.8047" id="PreviewGenerator" style="stroke: #A80036; stroke-width: 1.5;" width="241" x="6" y="116"/><ellipse cx="66.75" cy="132" fill="#ADD1B2" rx="11" ry="11" style="stroke: #A80036; stroke-width: 1.0;"/><path d="M69.7188,137.6406 Q69.1406,137.9375 68.5,138.0781 Q67.8594,138.2344 67.1563,138.2344 Q64.6563,138.2344 63.3281,136.5938 Q62.0156,134.9375 62.0156,131.8125 Q62.0156,128.6875 63.3281,127.0313 Q64.6563,125.375 67.1563,125.375 Q67.8594,125.375 68.5,125.5313 Q69.1563,125.6875 69.7188,125.9844 L69.7188,128.7031 Q69.0938,128.125 68.5,127.8594 Q67.9063,127.5781 67.2813,127.5781 Q65.9375,127.5781 65.25,128.6563 Q64.5625,129.7188 64.5625,131.8125 Q64.5625,133.9063 65.25,134.9844 Q65.9375,136.0469 67.2813,136.0469 Q67.9063,136.0469 68.5,135.7813 Q69.0938,135.5 69.7188,134.9219 L69.7188,137.6406 Z "/><text fill="#000000" font-family="sans-serif" font-size="12" lengthAdjust="spacingAndGlyphs" textLength="111" x="87.25" y="136.1543">PreviewGenerator</text><line style="stroke: #A80036; stroke-width: 1.5;" x1="7" x2="246" y1="148" y2="148"/><line style="stroke: #A80036; stroke-width: 1.5;" x1="7" x2="246" y1="156" y2="156"/><ellipse cx="17" cy="167" fill="#84BE84" rx="3" ry="3" style="stroke: #038048; stroke-width: 1.0;"/><text fill="#000000" font-family="sans-serif" font-size="11" lengthAdjust="spacingAndGlyphs" textLength="215" x="26" y="170.2104">GeneratePreviews() : RenderTexture[]</text><!--MD5=[83b3cf3d23d77c6f1e1b5291a241bc2a]
class MonoBehaviour--><rect fill="#FEFECE" filter="url(#f8o1jvd5ucj23)" height="48" id="MonoBehaviour" style="stroke: #A80036; stroke-width: 1.5;" width="128" x="62.5" y="8"/><ellipse cx="77.5" cy="24" fill="#ADD1B2" rx="11" ry="11" style="stroke: #A80036; stroke-width: 1.0;"/><path d="M80.4688,29.6406 Q79.8906,29.9375 79.25,30.0781 Q78.6094,30.2344 77.9063,30.2344 Q75.4063,30.2344 74.0781,28.5938 Q72.7656,26.9375 72.7656,23.8125 Q72.7656,20.6875 74.0781,19.0313 Q75.4063,17.375 77.9063,17.375 Q78.6094,17.375 79.25,17.5313 Q79.9063,17.6875 80.4688,17.9844 L80.4688,20.7031 Q79.8438,20.125 79.25,19.8594 Q78.6563,19.5781 78.0313,19.5781 Q76.6875,19.5781 76,20.6563 Q75.3125,21.7188 75.3125,23.8125 Q75.3125,25.9063 76,26.9844 Q76.6875,28.0469 78.0313,28.0469 Q78.6563,28.0469 79.25,27.7813 Q79.8438,27.5 80.4688,26.9219 L80.4688,29.6406 Z "/><text fill="#000000" font-family="sans-serif" font-size="12" lengthAdjust="spacingAndGlyphs" textLength="96" x="91.5" y="28.1543">MonoBehaviour</text><line style="stroke: #A80036; stroke-width: 1.5;" x1="63.5" x2="189.5" y1="40" y2="40"/><line style="stroke: #A80036; stroke-width: 1.5;" x1="63.5" x2="189.5" y1="48" y2="48"/><!--MD5=[14392e306776f55312e3125c6a506525]
reverse link MonoBehaviour to PreviewGenerator--><path d="M126.5,76.11 C126.5,89.31 126.5,103.54 126.5,115.65 " fill="none" id="MonoBehaviour&lt;-PreviewGenerator" style="stroke: #A80036; stroke-width: 1.0;"/><polygon fill="none" points="119.5,76.04,126.5,56.04,133.5,76.04,119.5,76.04" style="stroke: #A80036; stroke-width: 1.0;"/><!--MD5=[f34761451ef708208204b06d5fbe6548]
@startuml
class PreviewGenerator {
    + GeneratePreviews() : RenderTexture[]
}
MonoBehaviour <|- - PreviewGenerator
@enduml

PlantUML version 1.2020.02(Sun Mar 01 10:22:07 GMT 2020)
(GPL source distribution)
Java Runtime: OpenJDK Runtime Environment
JVM: OpenJDK 64-Bit Server VM
Java Version: 11.0.9+11-Ubuntu-0ubuntu1
Operating System: Linux
Default Encoding: ANSI_X3.4-1968
Language: en
Country: US
--></g></svg>