<?xml version="1.0" encoding="UTF-8" standalone="no"?><svg xmlns="http://www.w3.org/2000/svg" xmlns:xlink="http://www.w3.org/1999/xlink" contentScriptType="application/ecmascript" contentStyleType="text/css" height="97px" preserveAspectRatio="none" style="width:258px;height:97px;" version="1.1" viewBox="0 0 258 97" width="258px" zoomAndPan="magnify"><defs><filter height="300%" id="fikgh4rpfb23y" width="300%" x="-1" y="-1"><feGaussianBlur result="blurOut" stdDeviation="2.0"/><feColorMatrix in="blurOut" result="blurOut2" type="matrix" values="0 0 0 0 0 0 0 0 0 0 0 0 0 0 0 0 0 0 .4 0"/><feOffset dx="4.0" dy="4.0" in="blurOut2" result="blurOut3"/><feBlend in="SourceGraphic" in2="blurOut3" mode="normal"/></filter></defs><g><!--MD5=[50410012277a53ec9046333ebc973b07]
class DataManager--><rect fill="#FEFECE" filter="url(#fikgh4rpfb23y)" height="79.5469" id="DataManager" style="stroke: #A80036; stroke-width: 1.5;" width="240" x="7" y="7"/><ellipse cx="80.25" cy="25.9688" fill="#ADD1B2" rx="11" ry="11" style="stroke: #A80036; stroke-width: 1.0;"/><path d="M83.2188,31.6094 Q82.6406,31.9063 82,32.0469 Q81.3594,32.2031 80.6563,32.2031 Q78.1563,32.2031 76.8281,30.5625 Q75.5156,28.9063 75.5156,25.7813 Q75.5156,22.6563 76.8281,21 Q78.1563,19.3438 80.6563,19.3438 Q81.3594,19.3438 82,19.5 Q82.6563,19.6563 83.2188,19.9531 L83.2188,22.6719 Q82.5938,22.0938 82,21.8281 Q81.4063,21.5469 80.7813,21.5469 Q79.4375,21.5469 78.75,22.625 Q78.0625,23.6875 78.0625,25.7813 Q78.0625,27.875 78.75,28.9531 Q79.4375,30.0156 80.7813,30.0156 Q81.4063,30.0156 82,29.75 Q82.5938,29.4688 83.2188,28.8906 L83.2188,31.6094 Z "/><text fill="#000000" font-family="sans-serif" font-size="12" font-style="italic" lengthAdjust="spacingAndGlyphs" textLength="48" x="119.25" y="23.1387">«static»</text><text fill="#000000" font-family="sans-serif" font-size="12" lengthAdjust="spacingAndGlyphs" textLength="85" x="100.75" y="37.1074">DataManager</text><line style="stroke: #A80036; stroke-width: 1.5;" x1="8" x2="246" y1="44.9375" y2="44.9375"/><line style="stroke: #A80036; stroke-width: 1.5;" x1="8" x2="246" y1="52.9375" y2="52.9375"/><ellipse cx="18" cy="63.9375" fill="#84BE84" rx="3" ry="3" style="stroke: #038048; stroke-width: 1.0;"/><text fill="#000000" font-family="sans-serif" font-size="11" lengthAdjust="spacingAndGlyphs" text-decoration="underline" textLength="214" x="27" y="67.1479">SaveLevel(_tileDatas:TileData[]) : void</text><ellipse cx="18" cy="76.7422" fill="#84BE84" rx="3" ry="3" style="stroke: #038048; stroke-width: 1.0;"/><text fill="#000000" font-family="sans-serif" font-size="11" lengthAdjust="spacingAndGlyphs" text-decoration="underline" textLength="130" x="27" y="79.9526">LoadLevel() : TileData[]</text><!--MD5=[f2f453979e89a028331cf344ab44841e]
@startuml
class DataManager <<static>> {
    + {static} SaveLevel(_tileDatas:TileData[]) : void
    + {static} LoadLevel() : TileData[]
}
@enduml

PlantUML version 1.2020.02(Sun Mar 01 10:22:07 GMT 2020)
(GPL source distribution)
Java Runtime: OpenJDK Runtime Environment
JVM: OpenJDK 64-Bit Server VM
Java Version: 11.0.9+11-Ubuntu-0ubuntu1
Operating System: Linux
Default Encoding: ANSI_X3.4-1968
Language: en
Country: US
--></g></svg>