<?xml version="1.0" encoding="UTF-8" standalone="no"?><svg xmlns="http://www.w3.org/2000/svg" xmlns:xlink="http://www.w3.org/1999/xlink" contentScriptType="application/ecmascript" contentStyleType="text/css" height="309px" preserveAspectRatio="none" style="width:228px;height:309px;" version="1.1" viewBox="0 0 228 309" width="228px" zoomAndPan="magnify"><defs><filter height="300%" id="fe7odpap6l35n" width="300%" x="-1" y="-1"><feGaussianBlur result="blurOut" stdDeviation="2.0"/><feColorMatrix in="blurOut" result="blurOut2" type="matrix" values="0 0 0 0 0 0 0 0 0 0 0 0 0 0 0 0 0 0 .4 0"/><feOffset dx="4.0" dy="4.0" in="blurOut2" result="blurOut3"/><feBlend in="SourceGraphic" in2="blurOut3" mode="normal"/></filter></defs><g><!--MD5=[42b442eebd9e93d8a8a5496ae37a71ec]
class EditorManager--><rect fill="#FEFECE" filter="url(#fe7odpap6l35n)" height="73.6094" id="EditorManager" style="stroke: #A80036; stroke-width: 1.5;" width="153" x="64.5" y="116"/><ellipse cx="92.55" cy="132" fill="#ADD1B2" rx="11" ry="11" style="stroke: #A80036; stroke-width: 1.0;"/><path d="M95.5188,137.6406 Q94.9406,137.9375 94.3,138.0781 Q93.6594,138.2344 92.9563,138.2344 Q90.4563,138.2344 89.1281,136.5938 Q87.8156,134.9375 87.8156,131.8125 Q87.8156,128.6875 89.1281,127.0313 Q90.4563,125.375 92.9563,125.375 Q93.6594,125.375 94.3,125.5313 Q94.9563,125.6875 95.5188,125.9844 L95.5188,128.7031 Q94.8938,128.125 94.3,127.8594 Q93.7063,127.5781 93.0813,127.5781 Q91.7375,127.5781 91.05,128.6563 Q90.3625,129.7188 90.3625,131.8125 Q90.3625,133.9063 91.05,134.9844 Q91.7375,136.0469 93.0813,136.0469 Q93.7063,136.0469 94.3,135.7813 Q94.8938,135.5 95.5188,134.9219 L95.5188,137.6406 Z "/><text fill="#000000" font-family="sans-serif" font-size="12" lengthAdjust="spacingAndGlyphs" textLength="92" x="109.45" y="136.1543">EditorManager</text><line style="stroke: #A80036; stroke-width: 1.5;" x1="65.5" x2="216.5" y1="148" y2="148"/><line style="stroke: #A80036; stroke-width: 1.5;" x1="65.5" x2="216.5" y1="156" y2="156"/><ellipse cx="75.5" cy="167" fill="#84BE84" rx="3" ry="3" style="stroke: #038048; stroke-width: 1.0;"/><text fill="#000000" font-family="sans-serif" font-size="11" lengthAdjust="spacingAndGlyphs" textLength="124" x="84.5" y="170.2104">StartNewLevel() : void</text><ellipse cx="75.5" cy="179.8047" fill="#84BE84" rx="3" ry="3" style="stroke: #038048; stroke-width: 1.0;"/><text fill="#000000" font-family="sans-serif" font-size="11" lengthAdjust="spacingAndGlyphs" textLength="127" x="84.5" y="183.0151">StartLoadLevel() : void</text><!--MD5=[83b3cf3d23d77c6f1e1b5291a241bc2a]
class MonoBehaviour--><rect fill="#FEFECE" filter="url(#fe7odpap6l35n)" height="48" id="MonoBehaviour" style="stroke: #A80036; stroke-width: 1.5;" width="128" x="77" y="8"/><ellipse cx="92" cy="24" fill="#ADD1B2" rx="11" ry="11" style="stroke: #A80036; stroke-width: 1.0;"/><path d="M94.9688,29.6406 Q94.3906,29.9375 93.75,30.0781 Q93.1094,30.2344 92.4063,30.2344 Q89.9063,30.2344 88.5781,28.5938 Q87.2656,26.9375 87.2656,23.8125 Q87.2656,20.6875 88.5781,19.0313 Q89.9063,17.375 92.4063,17.375 Q93.1094,17.375 93.75,17.5313 Q94.4063,17.6875 94.9688,17.9844 L94.9688,20.7031 Q94.3438,20.125 93.75,19.8594 Q93.1563,19.5781 92.5313,19.5781 Q91.1875,19.5781 90.5,20.6563 Q89.8125,21.7188 89.8125,23.8125 Q89.8125,25.9063 90.5,26.9844 Q91.1875,28.0469 92.5313,28.0469 Q93.1563,28.0469 93.75,27.7813 Q94.3438,27.5 94.9688,26.9219 L94.9688,29.6406 Z "/><text fill="#000000" font-family="sans-serif" font-size="12" lengthAdjust="spacingAndGlyphs" textLength="96" x="106" y="28.1543">MonoBehaviour</text><line style="stroke: #A80036; stroke-width: 1.5;" x1="78" x2="204" y1="40" y2="40"/><line style="stroke: #A80036; stroke-width: 1.5;" x1="78" x2="204" y1="48" y2="48"/><!--MD5=[29bfb817a0a3a5c304db8bf39fbb6565]
class EditorState--><rect fill="#FEFECE" filter="url(#fe7odpap6l35n)" height="48" id="EditorState" style="stroke: #A80036; stroke-width: 1.5;" width="103" x="89.5" y="250"/><ellipse cx="104.5" cy="266" fill="#ADD1B2" rx="11" ry="11" style="stroke: #A80036; stroke-width: 1.0;"/><path d="M107.4688,271.6406 Q106.8906,271.9375 106.25,272.0781 Q105.6094,272.2344 104.9063,272.2344 Q102.4063,272.2344 101.0781,270.5938 Q99.7656,268.9375 99.7656,265.8125 Q99.7656,262.6875 101.0781,261.0313 Q102.4063,259.375 104.9063,259.375 Q105.6094,259.375 106.25,259.5313 Q106.9063,259.6875 107.4688,259.9844 L107.4688,262.7031 Q106.8438,262.125 106.25,261.8594 Q105.6563,261.5781 105.0313,261.5781 Q103.6875,261.5781 103,262.6563 Q102.3125,263.7188 102.3125,265.8125 Q102.3125,267.9063 103,268.9844 Q103.6875,270.0469 105.0313,270.0469 Q105.6563,270.0469 106.25,269.7813 Q106.8438,269.5 107.4688,268.9219 L107.4688,271.6406 Z "/><text fill="#000000" font-family="sans-serif" font-size="12" lengthAdjust="spacingAndGlyphs" textLength="71" x="118.5" y="270.1543">EditorState</text><line style="stroke: #A80036; stroke-width: 1.5;" x1="90.5" x2="191.5" y1="282" y2="282"/><line style="stroke: #A80036; stroke-width: 1.5;" x1="90.5" x2="191.5" y1="290" y2="290"/><!--MD5=[fae1aabd7e673167d9f429953f75ef1c]
reverse link MonoBehaviour to EditorManager--><path d="M141,76.43 C141,89.33 141,103.32 141,115.71 " fill="none" id="MonoBehaviour&lt;-EditorManager" style="stroke: #A80036; stroke-width: 1.0;"/><polygon fill="none" points="134,76.23,141,56.23,148,76.23,134,76.23" style="stroke: #A80036; stroke-width: 1.0;"/><!--MD5=[0caa7a2bcd85503e2eb6fec808312f7b]
link EditorManager to EditorState--><path d="M141,190.03 C141,207.48 141,228.15 141,244.49 " fill="none" id="EditorManager-&gt;EditorState" style="stroke: #A80036; stroke-width: 1.0;"/><polygon fill="#A80036" points="141,249.85,145,240.85,141,244.85,137,240.85,141,249.85" style="stroke: #A80036; stroke-width: 1.0;"/><text fill="#000000" font-family="sans-serif" font-size="13" lengthAdjust="spacingAndGlyphs" textLength="120" x="5.625" y="238.8236">CurrentEditorState</text><!--MD5=[e1026c8b9fd1e53f95f1a93c02b05af0]
@startuml
class EditorManager {
    + StartNewLevel() : void
    + StartLoadLevel() : void
}
MonoBehaviour <|- - EditorManager
EditorManager - -> "CurrentEditorState" EditorState
@enduml

PlantUML version 1.2020.02(Sun Mar 01 10:22:07 GMT 2020)
(GPL source distribution)
Java Runtime: OpenJDK Runtime Environment
JVM: OpenJDK 64-Bit Server VM
Java Version: 11.0.9+11-Ubuntu-0ubuntu1
Operating System: Linux
Default Encoding: ANSI_X3.4-1968
Language: en
Country: US
--></g></svg>