<?xml version="1.0" encoding="UTF-8" standalone="no"?><svg xmlns="http://www.w3.org/2000/svg" xmlns:xlink="http://www.w3.org/1999/xlink" contentScriptType="application/ecmascript" contentStyleType="text/css" height="354px" preserveAspectRatio="none" style="width:460px;height:354px;" version="1.1" viewBox="0 0 460 354" width="460px" zoomAndPan="magnify"><defs><filter height="300%" id="f1gjrpppx6q9pe" width="300%" x="-1" y="-1"><feGaussianBlur result="blurOut" stdDeviation="2.0"/><feColorMatrix in="blurOut" result="blurOut2" type="matrix" values="0 0 0 0 0 0 0 0 0 0 0 0 0 0 0 0 0 0 .4 0"/><feOffset dx="4.0" dy="4.0" in="blurOut2" result="blurOut3"/><feBlend in="SourceGraphic" in2="blurOut3" mode="normal"/></filter></defs><g><!--MD5=[29bfb817a0a3a5c304db8bf39fbb6565]
class EditorState--><rect fill="#FEFECE" filter="url(#f1gjrpppx6q9pe)" height="73.6094" id="EditorState" style="stroke: #A80036; stroke-width: 1.5;" width="103" x="7.5" y="52.5"/><ellipse cx="22.5" cy="68.5" fill="#EB937F" rx="11" ry="11" style="stroke: #A80036; stroke-width: 1.0;"/><path d="M26.6094,74.5 L18.8906,74.5 L18.8906,62.1094 L26.6094,62.1094 L26.6094,64.2656 L21.3438,64.2656 L21.3438,66.9375 L26.1094,66.9375 L26.1094,69.0938 L21.3438,69.0938 L21.3438,72.3438 L26.6094,72.3438 L26.6094,74.5 Z "/><text fill="#000000" font-family="sans-serif" font-size="12" lengthAdjust="spacingAndGlyphs" textLength="71" x="36.5" y="72.6543">EditorState</text><line style="stroke: #A80036; stroke-width: 1.5;" x1="8.5" x2="109.5" y1="84.5" y2="84.5"/><text fill="#000000" font-family="sans-serif" font-size="11" lengthAdjust="spacingAndGlyphs" textLength="80" x="13.5" y="98.7104">MainMenu= 0,</text><text fill="#000000" font-family="sans-serif" font-size="11" lengthAdjust="spacingAndGlyphs" textLength="57" x="13.5" y="111.5151">Editor= 1,</text><line style="stroke: #A80036; stroke-width: 1.5;" x1="8.5" x2="109.5" y1="118.1094" y2="118.1094"/><!--MD5=[67dc9d447ac5dbb625e3d503755a5c3a]
class TileType--><rect fill="#FEFECE" filter="url(#f1gjrpppx6q9pe)" height="163.2422" id="TileType" style="stroke: #A80036; stroke-width: 1.5;" width="158" x="146" y="8"/><ellipse cx="195.75" cy="24" fill="#EB937F" rx="11" ry="11" style="stroke: #A80036; stroke-width: 1.0;"/><path d="M199.8594,30 L192.1406,30 L192.1406,17.6094 L199.8594,17.6094 L199.8594,19.7656 L194.5938,19.7656 L194.5938,22.4375 L199.3594,22.4375 L199.3594,24.5938 L194.5938,24.5938 L194.5938,27.8438 L199.8594,27.8438 L199.8594,30 Z "/><text fill="#000000" font-family="sans-serif" font-size="12" lengthAdjust="spacingAndGlyphs" textLength="50" x="216.25" y="28.1543">TileType</text><line style="stroke: #A80036; stroke-width: 1.5;" x1="147" x2="303" y1="40" y2="40"/><text fill="#000000" font-family="sans-serif" font-size="11" lengthAdjust="spacingAndGlyphs" textLength="53" x="152" y="54.2104">None= 0,</text><text fill="#000000" font-family="sans-serif" font-size="11" lengthAdjust="spacingAndGlyphs" textLength="69" x="152" y="67.0151">Straight= 1,</text><text fill="#000000" font-family="sans-serif" font-size="11" lengthAdjust="spacingAndGlyphs" textLength="63" x="152" y="79.8198">Corner= 2,</text><text fill="#000000" font-family="sans-serif" font-size="11" lengthAdjust="spacingAndGlyphs" textLength="52" x="152" y="92.6245">Start= 3,</text><text fill="#000000" font-family="sans-serif" font-size="11" lengthAdjust="spacingAndGlyphs" textLength="45" x="152" y="105.4292">End= 4,</text><text fill="#000000" font-family="sans-serif" font-size="11" lengthAdjust="spacingAndGlyphs" textLength="62" x="152" y="118.2339">Tunnel= 5,</text><text fill="#000000" font-family="sans-serif" font-size="11" lengthAdjust="spacingAndGlyphs" textLength="122" x="152" y="131.0386">Switch_Left_Right= 6,</text><text fill="#000000" font-family="sans-serif" font-size="11" lengthAdjust="spacingAndGlyphs" textLength="139" x="152" y="143.8433">Switch_Straight_Left= 7,</text><text fill="#000000" font-family="sans-serif" font-size="11" lengthAdjust="spacingAndGlyphs" textLength="146" x="152" y="156.6479">Switch_Straight_Right= 8,</text><line style="stroke: #A80036; stroke-width: 1.5;" x1="147" x2="303" y1="163.2422" y2="163.2422"/><!--MD5=[c817e6524c5f11895781edab84026831]
class TileRotation--><rect fill="#FEFECE" filter="url(#f1gjrpppx6q9pe)" height="99.2188" id="TileRotation" style="stroke: #A80036; stroke-width: 1.5;" width="111" x="338.5" y="40"/><ellipse cx="355.75" cy="56" fill="#EB937F" rx="11" ry="11" style="stroke: #A80036; stroke-width: 1.0;"/><path d="M359.8594,62 L352.1406,62 L352.1406,49.6094 L359.8594,49.6094 L359.8594,51.7656 L354.5938,51.7656 L354.5938,54.4375 L359.3594,54.4375 L359.3594,56.5938 L354.5938,56.5938 L354.5938,59.8438 L359.8594,59.8438 L359.8594,62 Z "/><text fill="#000000" font-family="sans-serif" font-size="12" lengthAdjust="spacingAndGlyphs" textLength="74" x="370.25" y="60.1543">TileRotation</text><line style="stroke: #A80036; stroke-width: 1.5;" x1="339.5" x2="448.5" y1="72" y2="72"/><text fill="#000000" font-family="sans-serif" font-size="11" lengthAdjust="spacingAndGlyphs" textLength="52" x="344.5" y="86.2104">Zero= 0,</text><text fill="#000000" font-family="sans-serif" font-size="11" lengthAdjust="spacingAndGlyphs" textLength="89" x="344.5" y="99.0151">One_Fourth= 1,</text><text fill="#000000" font-family="sans-serif" font-size="11" lengthAdjust="spacingAndGlyphs" textLength="46" x="344.5" y="111.8198">Half= 2,</text><text fill="#000000" font-family="sans-serif" font-size="11" lengthAdjust="spacingAndGlyphs" textLength="99" x="344.5" y="124.6245">Three_Fourth= 3,</text><line style="stroke: #A80036; stroke-width: 1.5;" x1="339.5" x2="448.5" y1="131.2188" y2="131.2188"/><!--MD5=[4e88cbc3124b210b595c12624054c31d]
class SwitchState--><rect fill="#FEFECE" filter="url(#f1gjrpppx6q9pe)" height="86.4141" id="SwitchState" style="stroke: #A80036; stroke-width: 1.5;" width="106" x="6" y="244"/><ellipse cx="21" cy="260" fill="#EB937F" rx="11" ry="11" style="stroke: #A80036; stroke-width: 1.0;"/><path d="M25.1094,266 L17.3906,266 L17.3906,253.6094 L25.1094,253.6094 L25.1094,255.7656 L19.8438,255.7656 L19.8438,258.4375 L24.6094,258.4375 L24.6094,260.5938 L19.8438,260.5938 L19.8438,263.8438 L25.1094,263.8438 L25.1094,266 Z "/><text fill="#000000" font-family="sans-serif" font-size="12" lengthAdjust="spacingAndGlyphs" textLength="74" x="35" y="264.1543">SwitchState</text><line style="stroke: #A80036; stroke-width: 1.5;" x1="7" x2="111" y1="276" y2="276"/><text fill="#000000" font-family="sans-serif" font-size="11" lengthAdjust="spacingAndGlyphs" textLength="53" x="12" y="290.2104">None= 0,</text><text fill="#000000" font-family="sans-serif" font-size="11" lengthAdjust="spacingAndGlyphs" textLength="47" x="12" y="303.0151">One= 1,</text><text fill="#000000" font-family="sans-serif" font-size="11" lengthAdjust="spacingAndGlyphs" textLength="47" x="12" y="315.8198">Two= 2,</text><line style="stroke: #A80036; stroke-width: 1.5;" x1="7" x2="111" y1="322.4141" y2="322.4141"/><!--MD5=[e49b9f65deba2a0e6fd492e1917094e1]
class SwitchInputType--><rect fill="#FEFECE" filter="url(#f1gjrpppx6q9pe)" height="112.0234" id="SwitchInputType" style="stroke: #A80036; stroke-width: 1.5;" width="133" x="147.5" y="231"/><ellipse cx="162.5" cy="247" fill="#EB937F" rx="11" ry="11" style="stroke: #A80036; stroke-width: 1.0;"/><path d="M166.6094,253 L158.8906,253 L158.8906,240.6094 L166.6094,240.6094 L166.6094,242.7656 L161.3438,242.7656 L161.3438,245.4375 L166.1094,245.4375 L166.1094,247.5938 L161.3438,247.5938 L161.3438,250.8438 L166.6094,250.8438 L166.6094,253 Z "/><text fill="#000000" font-family="sans-serif" font-size="12" lengthAdjust="spacingAndGlyphs" textLength="101" x="176.5" y="251.1543">SwitchInputType</text><line style="stroke: #A80036; stroke-width: 1.5;" x1="148.5" x2="279.5" y1="263" y2="263"/><text fill="#000000" font-family="sans-serif" font-size="11" lengthAdjust="spacingAndGlyphs" textLength="53" x="153.5" y="277.2104">None= 0,</text><text fill="#000000" font-family="sans-serif" font-size="11" lengthAdjust="spacingAndGlyphs" textLength="59" x="153.5" y="290.0151">Green= 1,</text><text fill="#000000" font-family="sans-serif" font-size="11" lengthAdjust="spacingAndGlyphs" textLength="60" x="153.5" y="302.8198">Yellow= 2,</text><text fill="#000000" font-family="sans-serif" font-size="11" lengthAdjust="spacingAndGlyphs" textLength="49" x="153.5" y="315.6245">Blue= 3,</text><text fill="#000000" font-family="sans-serif" font-size="11" lengthAdjust="spacingAndGlyphs" textLength="45" x="153.5" y="328.4292">Red= 4,</text><line style="stroke: #A80036; stroke-width: 1.5;" x1="148.5" x2="279.5" y1="335.0234" y2="335.0234"/><!--MD5=[9e429e6d4734e311c3eddad72625b7c5]
link EditorState to TileType--><!--MD5=[6d85e16c5edca1ffff5f70ff625e209e]
link TileType to TileRotation--><!--MD5=[2d40f453cc89839fc131f5ca79990866]
link EditorState to SwitchState--><!--MD5=[1ac9ae81916b11c54eb1f53b5ef11f86]
link SwitchState to SwitchInputType--><!--MD5=[84a08844b0e8df15dd2f68bd7fe6e0f5]
@startuml
enum EditorState {
    MainMenu= 0,
    Editor= 1,
}
enum TileType {
    None= 0,
    Straight= 1,
    Corner= 2,
    Start= 3,
    End= 4,
    Tunnel= 5,
    Switch_Left_Right= 6,
    Switch_Straight_Left= 7,
    Switch_Straight_Right= 8,
}
enum TileRotation {
    Zero= 0,
    One_Fourth= 1,
    Half= 2,
    Three_Fourth= 3,
}
enum SwitchState {
    None= 0,
    One= 1,
    Two= 2,
}
enum SwitchInputType {
    None= 0,
    Green= 1,
    Yellow= 2,
    Blue= 3,
    Red= 4,
}
@enduml

PlantUML version 1.2020.02(Sun Mar 01 10:22:07 GMT 2020)
(GPL source distribution)
Java Runtime: OpenJDK Runtime Environment
JVM: OpenJDK 64-Bit Server VM
Java Version: 11.0.9+11-Ubuntu-0ubuntu1
Operating System: Linux
Default Encoding: ANSI_X3.4-1968
Language: en
Country: US
--></g></svg>