<?xml version="1.0" encoding="UTF-8" standalone="no"?><svg xmlns="http://www.w3.org/2000/svg" xmlns:xlink="http://www.w3.org/1999/xlink" contentScriptType="application/ecmascript" contentStyleType="text/css" height="213px" preserveAspectRatio="none" style="width:260px;height:213px;" version="1.1" viewBox="0 0 260 213" width="260px" zoomAndPan="magnify"><defs><filter height="300%" id="fvgrv2xvzyroz" width="300%" x="-1" y="-1"><feGaussianBlur result="blurOut" stdDeviation="2.0"/><feColorMatrix in="blurOut" result="blurOut2" type="matrix" values="0 0 0 0 0 0 0 0 0 0 0 0 0 0 0 0 0 0 .4 0"/><feOffset dx="4.0" dy="4.0" in="blurOut2" result="blurOut3"/><feBlend in="SourceGraphic" in2="blurOut3" mode="normal"/></filter></defs><g><!--MD5=[64549a37eea659c918f5cc0516a79ae7]
class LevelEditor--><rect fill="#FEFECE" filter="url(#fvgrv2xvzyroz)" height="86.4141" id="LevelEditor" style="stroke: #A80036; stroke-width: 1.5;" width="126" x="7" y="116"/><ellipse cx="33.7" cy="132" fill="#ADD1B2" rx="11" ry="11" style="stroke: #A80036; stroke-width: 1.0;"/><path d="M36.6688,137.6406 Q36.0906,137.9375 35.45,138.0781 Q34.8094,138.2344 34.1063,138.2344 Q31.6063,138.2344 30.2781,136.5938 Q28.9656,134.9375 28.9656,131.8125 Q28.9656,128.6875 30.2781,127.0313 Q31.6063,125.375 34.1063,125.375 Q34.8094,125.375 35.45,125.5313 Q36.1063,125.6875 36.6688,125.9844 L36.6688,128.7031 Q36.0438,128.125 35.45,127.8594 Q34.8563,127.5781 34.2313,127.5781 Q32.8875,127.5781 32.2,128.6563 Q31.5125,129.7188 31.5125,131.8125 Q31.5125,133.9063 32.2,134.9844 Q32.8875,136.0469 34.2313,136.0469 Q34.8563,136.0469 35.45,135.7813 Q36.0438,135.5 36.6688,134.9219 L36.6688,137.6406 Z "/><text fill="#000000" font-family="sans-serif" font-size="12" lengthAdjust="spacingAndGlyphs" textLength="68" x="50.3" y="136.1543">LevelEditor</text><line style="stroke: #A80036; stroke-width: 1.5;" x1="8" x2="132" y1="148" y2="148"/><line style="stroke: #A80036; stroke-width: 1.5;" x1="8" x2="132" y1="156" y2="156"/><ellipse cx="18" cy="167" fill="#84BE84" rx="3" ry="3" style="stroke: #038048; stroke-width: 1.0;"/><text fill="#000000" font-family="sans-serif" font-size="11" lengthAdjust="spacingAndGlyphs" textLength="83" x="27" y="170.2104">Update() : void</text><ellipse cx="18" cy="179.8047" fill="#84BE84" rx="3" ry="3" style="stroke: #038048; stroke-width: 1.0;"/><text fill="#000000" font-family="sans-serif" font-size="11" lengthAdjust="spacingAndGlyphs" textLength="100" x="27" y="183.0151">SaveLevel() : void</text><ellipse cx="18" cy="192.6094" fill="#84BE84" rx="3" ry="3" style="stroke: #038048; stroke-width: 1.0;"/><text fill="#000000" font-family="sans-serif" font-size="11" lengthAdjust="spacingAndGlyphs" textLength="99" x="27" y="195.8198">LoadLevel() : void</text><!--MD5=[e644022de7dea015dd09463c37421447]
class List`1--><rect fill="#FEFECE" filter="url(#fvgrv2xvzyroz)" height="48" id="List`1" style="stroke: #A80036; stroke-width: 1.5;" width="78" x="168" y="135"/><ellipse cx="183" cy="151" fill="#ADD1B2" rx="11" ry="11" style="stroke: #A80036; stroke-width: 1.0;"/><path d="M185.9688,156.6406 Q185.3906,156.9375 184.75,157.0781 Q184.1094,157.2344 183.4063,157.2344 Q180.9063,157.2344 179.5781,155.5938 Q178.2656,153.9375 178.2656,150.8125 Q178.2656,147.6875 179.5781,146.0313 Q180.9063,144.375 183.4063,144.375 Q184.1094,144.375 184.75,144.5313 Q185.4063,144.6875 185.9688,144.9844 L185.9688,147.7031 Q185.3438,147.125 184.75,146.8594 Q184.1563,146.5781 183.5313,146.5781 Q182.1875,146.5781 181.5,147.6563 Q180.8125,148.7188 180.8125,150.8125 Q180.8125,152.9063 181.5,153.9844 Q182.1875,155.0469 183.5313,155.0469 Q184.1563,155.0469 184.75,154.7813 Q185.3438,154.5 185.9688,153.9219 L185.9688,156.6406 Z "/><text fill="#000000" font-family="sans-serif" font-size="12" lengthAdjust="spacingAndGlyphs" textLength="35" x="197" y="155.1543">List`1</text><rect fill="#FFFFFF" height="15.9688" style="stroke: #000000; stroke-width: 1.0; stroke-dasharray: 2.0,2.0;" width="9" x="240" y="132"/><text fill="#000000" font-family="sans-serif" font-size="12" font-style="italic" lengthAdjust="spacingAndGlyphs" textLength="7" x="241" y="144.1387">T</text><line style="stroke: #A80036; stroke-width: 1.5;" x1="169" x2="245" y1="167" y2="167"/><line style="stroke: #A80036; stroke-width: 1.5;" x1="169" x2="245" y1="175" y2="175"/><!--MD5=[83b3cf3d23d77c6f1e1b5291a241bc2a]
class MonoBehaviour--><rect fill="#FEFECE" filter="url(#fvgrv2xvzyroz)" height="48" id="MonoBehaviour" style="stroke: #A80036; stroke-width: 1.5;" width="128" x="6" y="8"/><ellipse cx="21" cy="24" fill="#ADD1B2" rx="11" ry="11" style="stroke: #A80036; stroke-width: 1.0;"/><path d="M23.9688,29.6406 Q23.3906,29.9375 22.75,30.0781 Q22.1094,30.2344 21.4063,30.2344 Q18.9063,30.2344 17.5781,28.5938 Q16.2656,26.9375 16.2656,23.8125 Q16.2656,20.6875 17.5781,19.0313 Q18.9063,17.375 21.4063,17.375 Q22.1094,17.375 22.75,17.5313 Q23.4063,17.6875 23.9688,17.9844 L23.9688,20.7031 Q23.3438,20.125 22.75,19.8594 Q22.1563,19.5781 21.5313,19.5781 Q20.1875,19.5781 19.5,20.6563 Q18.8125,21.7188 18.8125,23.8125 Q18.8125,25.9063 19.5,26.9844 Q20.1875,28.0469 21.5313,28.0469 Q22.1563,28.0469 22.75,27.7813 Q23.3438,27.5 23.9688,26.9219 L23.9688,29.6406 Z "/><text fill="#000000" font-family="sans-serif" font-size="12" lengthAdjust="spacingAndGlyphs" textLength="96" x="35" y="28.1543">MonoBehaviour</text><line style="stroke: #A80036; stroke-width: 1.5;" x1="7" x2="133" y1="40" y2="40"/><line style="stroke: #A80036; stroke-width: 1.5;" x1="7" x2="133" y1="48" y2="48"/><!--MD5=[2cecffa6ecd572152a73ae6ae4b32878]
reverse link MonoBehaviour to LevelEditor--><path d="M70,76.27 C70,89.12 70,103.17 70,115.94 " fill="none" id="MonoBehaviour&lt;-LevelEditor" style="stroke: #A80036; stroke-width: 1.0;"/><polygon fill="none" points="63,76.22,70,56.22,77,76.22,63,76.22" style="stroke: #A80036; stroke-width: 1.0;"/><!--MD5=[2a585368ef4d9dc2394577cd6cf5aa09]
link LevelEditor to List`1--><path d="M145.15,159 C145.15,159 151.96,159 154.75,159 " fill="none" id="LevelEditor-List`1" style="stroke: #A80036; stroke-width: 1.0;"/><polygon fill="#A80036" points="167.77,159,158.77,155,162.77,159,158.77,163,167.77,159" style="stroke: #A80036; stroke-width: 1.0;"/><line style="stroke: #A80036; stroke-width: 1.0;" x1="162.77" x2="154.77" y1="159" y2="159"/><polygon fill="#FFFFFF" points="133.15,159,139.15,163,145.15,159,139.15,155,133.15,159" style="stroke: #A80036; stroke-width: 1.0;"/><text fill="#000000" font-family="sans-serif" font-size="13" lengthAdjust="spacingAndGlyphs" textLength="69" x="91.5447" y="184.4941">tiles&lt;Tile&gt;</text><!--MD5=[ea976aedd9a568279c9bbb41c4edf532]
@startuml
class LevelEditor {
    + Update() : void
    + SaveLevel() : void
    + LoadLevel() : void
}
class "List`1"<T> {
}
MonoBehaviour <|- - LevelEditor
LevelEditor o-> "tiles<Tile>" "List`1"
@enduml

PlantUML version 1.2020.02(Sun Mar 01 10:22:07 GMT 2020)
(GPL source distribution)
Java Runtime: OpenJDK Runtime Environment
JVM: OpenJDK 64-Bit Server VM
Java Version: 11.0.9+11-Ubuntu-0ubuntu1
Operating System: Linux
Default Encoding: ANSI_X3.4-1968
Language: en
Country: US
--></g></svg>