<?xml version="1.0" encoding="UTF-8" standalone="no"?><svg xmlns="http://www.w3.org/2000/svg" xmlns:xlink="http://www.w3.org/1999/xlink" contentScriptType="application/ecmascript" contentStyleType="text/css" height="303px" preserveAspectRatio="none" style="width:276px;height:303px;" version="1.1" viewBox="0 0 276 303" width="276px" zoomAndPan="magnify"><defs><filter height="300%" id="fzlc30yijpz7n" width="300%" x="-1" y="-1"><feGaussianBlur result="blurOut" stdDeviation="2.0"/><feColorMatrix in="blurOut" result="blurOut2" type="matrix" values="0 0 0 0 0 0 0 0 0 0 0 0 0 0 0 0 0 0 .4 0"/><feOffset dx="4.0" dy="4.0" in="blurOut2" result="blurOut3"/><feBlend in="SourceGraphic" in2="blurOut3" mode="normal"/></filter></defs><g><!--MD5=[64549a37eea659c918f5cc0516a79ae7]
class LevelEditor--><rect fill="#FEFECE" filter="url(#fzlc30yijpz7n)" height="176.0469" id="LevelEditor" style="stroke: #A80036; stroke-width: 1.5;" width="143" x="6" y="116"/><ellipse cx="40.35" cy="132" fill="#ADD1B2" rx="11" ry="11" style="stroke: #A80036; stroke-width: 1.0;"/><path d="M43.3188,137.6406 Q42.7406,137.9375 42.1,138.0781 Q41.4594,138.2344 40.7563,138.2344 Q38.2563,138.2344 36.9281,136.5938 Q35.6156,134.9375 35.6156,131.8125 Q35.6156,128.6875 36.9281,127.0313 Q38.2563,125.375 40.7563,125.375 Q41.4594,125.375 42.1,125.5313 Q42.7563,125.6875 43.3188,125.9844 L43.3188,128.7031 Q42.6938,128.125 42.1,127.8594 Q41.5063,127.5781 40.8813,127.5781 Q39.5375,127.5781 38.85,128.6563 Q38.1625,129.7188 38.1625,131.8125 Q38.1625,133.9063 38.85,134.9844 Q39.5375,136.0469 40.8813,136.0469 Q41.5063,136.0469 42.1,135.7813 Q42.6938,135.5 43.3188,134.9219 L43.3188,137.6406 Z "/><text fill="#000000" font-family="sans-serif" font-size="12" lengthAdjust="spacingAndGlyphs" textLength="68" x="58.65" y="136.1543">LevelEditor</text><line style="stroke: #A80036; stroke-width: 1.5;" x1="7" x2="148" y1="148" y2="148"/><ellipse cx="17" cy="159" fill="none" rx="3" ry="3" style="stroke: #038048; stroke-width: 1.0;"/><text fill="#000000" font-family="sans-serif" font-size="11" lengthAdjust="spacingAndGlyphs" textLength="107" x="26" y="162.2104">hasChanges : bool</text><line style="stroke: #A80036; stroke-width: 1.5;" x1="7" x2="148" y1="168.8047" y2="168.8047"/><ellipse cx="17" cy="179.8047" fill="#84BE84" rx="3" ry="3" style="stroke: #038048; stroke-width: 1.0;"/><text fill="#000000" font-family="sans-serif" font-size="11" lengthAdjust="spacingAndGlyphs" textLength="87" x="26" y="183.0151">OnStart() : void</text><ellipse cx="17" cy="192.6094" fill="#84BE84" rx="3" ry="3" style="stroke: #038048; stroke-width: 1.0;"/><text fill="#000000" font-family="sans-serif" font-size="11" lengthAdjust="spacingAndGlyphs" textLength="99" x="26" y="195.8198">OnUpdate() : void</text><ellipse cx="17" cy="205.4141" fill="#84BE84" rx="3" ry="3" style="stroke: #038048; stroke-width: 1.0;"/><text fill="#000000" font-family="sans-serif" font-size="11" lengthAdjust="spacingAndGlyphs" textLength="114" x="26" y="208.6245">TryNewLevel() : void</text><ellipse cx="17" cy="218.2188" fill="#84BE84" rx="3" ry="3" style="stroke: #038048; stroke-width: 1.0;"/><text fill="#000000" font-family="sans-serif" font-size="11" lengthAdjust="spacingAndGlyphs" textLength="96" x="26" y="221.4292">NewLevel() : void</text><ellipse cx="17" cy="231.0234" fill="#84BE84" rx="3" ry="3" style="stroke: #038048; stroke-width: 1.0;"/><text fill="#000000" font-family="sans-serif" font-size="11" lengthAdjust="spacingAndGlyphs" textLength="100" x="26" y="234.2339">SaveLevel() : void</text><ellipse cx="17" cy="243.8281" fill="#84BE84" rx="3" ry="3" style="stroke: #038048; stroke-width: 1.0;"/><text fill="#000000" font-family="sans-serif" font-size="11" lengthAdjust="spacingAndGlyphs" textLength="117" x="26" y="247.0386">TryLoadLevel() : void</text><ellipse cx="17" cy="256.6328" fill="#84BE84" rx="3" ry="3" style="stroke: #038048; stroke-width: 1.0;"/><text fill="#000000" font-family="sans-serif" font-size="11" lengthAdjust="spacingAndGlyphs" textLength="99" x="26" y="259.8433">LoadLevel() : void</text><ellipse cx="17" cy="269.4375" fill="#84BE84" rx="3" ry="3" style="stroke: #038048; stroke-width: 1.0;"/><text fill="#000000" font-family="sans-serif" font-size="11" lengthAdjust="spacingAndGlyphs" textLength="84" x="26" y="272.6479">TryQuit() : void</text><ellipse cx="17" cy="282.2422" fill="#84BE84" rx="3" ry="3" style="stroke: #038048; stroke-width: 1.0;"/><text fill="#000000" font-family="sans-serif" font-size="11" lengthAdjust="spacingAndGlyphs" textLength="66" x="26" y="285.4526">Quit() : void</text><!--MD5=[e644022de7dea015dd09463c37421447]
class List`1--><rect fill="#FEFECE" filter="url(#fzlc30yijpz7n)" height="48" id="List`1" style="stroke: #A80036; stroke-width: 1.5;" width="78" x="184.5" y="180"/><ellipse cx="199.5" cy="196" fill="#ADD1B2" rx="11" ry="11" style="stroke: #A80036; stroke-width: 1.0;"/><path d="M202.4688,201.6406 Q201.8906,201.9375 201.25,202.0781 Q200.6094,202.2344 199.9063,202.2344 Q197.4063,202.2344 196.0781,200.5938 Q194.7656,198.9375 194.7656,195.8125 Q194.7656,192.6875 196.0781,191.0313 Q197.4063,189.375 199.9063,189.375 Q200.6094,189.375 201.25,189.5313 Q201.9063,189.6875 202.4688,189.9844 L202.4688,192.7031 Q201.8438,192.125 201.25,191.8594 Q200.6563,191.5781 200.0313,191.5781 Q198.6875,191.5781 198,192.6563 Q197.3125,193.7188 197.3125,195.8125 Q197.3125,197.9063 198,198.9844 Q198.6875,200.0469 200.0313,200.0469 Q200.6563,200.0469 201.25,199.7813 Q201.8438,199.5 202.4688,198.9219 L202.4688,201.6406 Z "/><text fill="#000000" font-family="sans-serif" font-size="12" lengthAdjust="spacingAndGlyphs" textLength="35" x="213.5" y="200.1543">List`1</text><rect fill="#FFFFFF" height="15.9688" style="stroke: #000000; stroke-width: 1.0; stroke-dasharray: 2.0,2.0;" width="9" x="256.5" y="177"/><text fill="#000000" font-family="sans-serif" font-size="12" font-style="italic" lengthAdjust="spacingAndGlyphs" textLength="7" x="257.5" y="189.1387">T</text><line style="stroke: #A80036; stroke-width: 1.5;" x1="185.5" x2="261.5" y1="212" y2="212"/><line style="stroke: #A80036; stroke-width: 1.5;" x1="185.5" x2="261.5" y1="220" y2="220"/><!--MD5=[83b3cf3d23d77c6f1e1b5291a241bc2a]
class MonoBehaviour--><rect fill="#FEFECE" filter="url(#fzlc30yijpz7n)" height="48" id="MonoBehaviour" style="stroke: #A80036; stroke-width: 1.5;" width="128" x="13.5" y="8"/><ellipse cx="28.5" cy="24" fill="#ADD1B2" rx="11" ry="11" style="stroke: #A80036; stroke-width: 1.0;"/><path d="M31.4688,29.6406 Q30.8906,29.9375 30.25,30.0781 Q29.6094,30.2344 28.9063,30.2344 Q26.4063,30.2344 25.0781,28.5938 Q23.7656,26.9375 23.7656,23.8125 Q23.7656,20.6875 25.0781,19.0313 Q26.4063,17.375 28.9063,17.375 Q29.6094,17.375 30.25,17.5313 Q30.9063,17.6875 31.4688,17.9844 L31.4688,20.7031 Q30.8438,20.125 30.25,19.8594 Q29.6563,19.5781 29.0313,19.5781 Q27.6875,19.5781 27,20.6563 Q26.3125,21.7188 26.3125,23.8125 Q26.3125,25.9063 27,26.9844 Q27.6875,28.0469 29.0313,28.0469 Q29.6563,28.0469 30.25,27.7813 Q30.8438,27.5 31.4688,26.9219 L31.4688,29.6406 Z "/><text fill="#000000" font-family="sans-serif" font-size="12" lengthAdjust="spacingAndGlyphs" textLength="96" x="42.5" y="28.1543">MonoBehaviour</text><line style="stroke: #A80036; stroke-width: 1.5;" x1="14.5" x2="140.5" y1="40" y2="40"/><line style="stroke: #A80036; stroke-width: 1.5;" x1="14.5" x2="140.5" y1="48" y2="48"/><!--MD5=[2cecffa6ecd572152a73ae6ae4b32878]
reverse link MonoBehaviour to LevelEditor--><path d="M77.5,76.71 C77.5,88.77 77.5,102.3 77.5,115.9 " fill="none" id="MonoBehaviour&lt;-LevelEditor" style="stroke: #A80036; stroke-width: 1.0;"/><polygon fill="none" points="70.5,76.28,77.5,56.28,84.5,76.28,70.5,76.28" style="stroke: #A80036; stroke-width: 1.0;"/><!--MD5=[2a585368ef4d9dc2394577cd6cf5aa09]
link LevelEditor to List`1--><path d="M161.07,204 C161.07,204 168.22,204 171.2,204 " fill="none" id="LevelEditor-List`1" style="stroke: #A80036; stroke-width: 1.0;"/><polygon fill="#A80036" points="184.25,204,175.25,200,179.25,204,175.25,208,184.25,204" style="stroke: #A80036; stroke-width: 1.0;"/><line style="stroke: #A80036; stroke-width: 1.0;" x1="179.25" x2="171.25" y1="204" y2="204"/><polygon fill="#FFFFFF" points="149.07,204,155.07,208,161.07,204,155.07,200,149.07,204" style="stroke: #A80036; stroke-width: 1.0;"/><text fill="#000000" font-family="sans-serif" font-size="13" lengthAdjust="spacingAndGlyphs" textLength="69" x="106.0467" y="177.1918">tiles&lt;Tile&gt;</text><!--MD5=[9517e7e0a32619c43004a9fa9e19aa71]
@startuml
class LevelEditor {
    + hasChanges : bool
    + OnStart() : void
    + OnUpdate() : void
    + TryNewLevel() : void
    + NewLevel() : void
    + SaveLevel() : void
    + TryLoadLevel() : void
    + LoadLevel() : void
    + TryQuit() : void
    + Quit() : void
}
class "List`1"<T> {
}
MonoBehaviour <|- - LevelEditor
LevelEditor o-> "tiles<Tile>" "List`1"
@enduml

PlantUML version 1.2020.02(Sun Mar 01 10:22:07 GMT 2020)
(GPL source distribution)
Java Runtime: OpenJDK Runtime Environment
JVM: OpenJDK 64-Bit Server VM
Java Version: 11.0.9+11-Ubuntu-0ubuntu1
Operating System: Linux
Default Encoding: ANSI_X3.4-1968
Language: en
Country: US
--></g></svg>