<?xml version="1.0" encoding="UTF-8" standalone="no"?><svg xmlns="http://www.w3.org/2000/svg" xmlns:xlink="http://www.w3.org/1999/xlink" contentScriptType="application/ecmascript" contentStyleType="text/css" height="187px" preserveAspectRatio="none" style="width:288px;height:187px;" version="1.1" viewBox="0 0 288 187" width="288px" zoomAndPan="magnify"><defs><filter height="300%" id="fmhsz9qvfmv6d" width="300%" x="-1" y="-1"><feGaussianBlur result="blurOut" stdDeviation="2.0"/><feColorMatrix in="blurOut" result="blurOut2" type="matrix" values="0 0 0 0 0 0 0 0 0 0 0 0 0 0 0 0 0 0 .4 0"/><feOffset dx="4.0" dy="4.0" in="blurOut2" result="blurOut3"/><feBlend in="SourceGraphic" in2="blurOut3" mode="normal"/></filter></defs><g><!--MD5=[7ee479320b1b25e5b33c94f04880cf2a]
class LevelGenerator--><rect fill="#FEFECE" filter="url(#fmhsz9qvfmv6d)" height="60.8047" id="LevelGenerator" style="stroke: #A80036; stroke-width: 1.5;" width="271" x="6" y="116"/><ellipse cx="89.75" cy="132" fill="#ADD1B2" rx="11" ry="11" style="stroke: #A80036; stroke-width: 1.0;"/><path d="M92.7188,137.6406 Q92.1406,137.9375 91.5,138.0781 Q90.8594,138.2344 90.1563,138.2344 Q87.6563,138.2344 86.3281,136.5938 Q85.0156,134.9375 85.0156,131.8125 Q85.0156,128.6875 86.3281,127.0313 Q87.6563,125.375 90.1563,125.375 Q90.8594,125.375 91.5,125.5313 Q92.1563,125.6875 92.7188,125.9844 L92.7188,128.7031 Q92.0938,128.125 91.5,127.8594 Q90.9063,127.5781 90.2813,127.5781 Q88.9375,127.5781 88.25,128.6563 Q87.5625,129.7188 87.5625,131.8125 Q87.5625,133.9063 88.25,134.9844 Q88.9375,136.0469 90.2813,136.0469 Q90.9063,136.0469 91.5,135.7813 Q92.0938,135.5 92.7188,134.9219 L92.7188,137.6406 Z "/><text fill="#000000" font-family="sans-serif" font-size="12" lengthAdjust="spacingAndGlyphs" textLength="95" x="110.25" y="136.1543">LevelGenerator</text><line style="stroke: #A80036; stroke-width: 1.5;" x1="7" x2="276" y1="148" y2="148"/><line style="stroke: #A80036; stroke-width: 1.5;" x1="7" x2="276" y1="156" y2="156"/><ellipse cx="17" cy="167" fill="#84BE84" rx="3" ry="3" style="stroke: #038048; stroke-width: 1.0;"/><text fill="#000000" font-family="sans-serif" font-size="11" lengthAdjust="spacingAndGlyphs" textLength="245" x="26" y="170.2104">Generate(_tileDatas:TileData[]) : List&lt;Tile&gt;</text><!--MD5=[83b3cf3d23d77c6f1e1b5291a241bc2a]
class MonoBehaviour--><rect fill="#FEFECE" filter="url(#fmhsz9qvfmv6d)" height="48" id="MonoBehaviour" style="stroke: #A80036; stroke-width: 1.5;" width="128" x="77.5" y="8"/><ellipse cx="92.5" cy="24" fill="#ADD1B2" rx="11" ry="11" style="stroke: #A80036; stroke-width: 1.0;"/><path d="M95.4688,29.6406 Q94.8906,29.9375 94.25,30.0781 Q93.6094,30.2344 92.9063,30.2344 Q90.4063,30.2344 89.0781,28.5938 Q87.7656,26.9375 87.7656,23.8125 Q87.7656,20.6875 89.0781,19.0313 Q90.4063,17.375 92.9063,17.375 Q93.6094,17.375 94.25,17.5313 Q94.9063,17.6875 95.4688,17.9844 L95.4688,20.7031 Q94.8438,20.125 94.25,19.8594 Q93.6563,19.5781 93.0313,19.5781 Q91.6875,19.5781 91,20.6563 Q90.3125,21.7188 90.3125,23.8125 Q90.3125,25.9063 91,26.9844 Q91.6875,28.0469 93.0313,28.0469 Q93.6563,28.0469 94.25,27.7813 Q94.8438,27.5 95.4688,26.9219 L95.4688,29.6406 Z "/><text fill="#000000" font-family="sans-serif" font-size="12" lengthAdjust="spacingAndGlyphs" textLength="96" x="106.5" y="28.1543">MonoBehaviour</text><line style="stroke: #A80036; stroke-width: 1.5;" x1="78.5" x2="204.5" y1="40" y2="40"/><line style="stroke: #A80036; stroke-width: 1.5;" x1="78.5" x2="204.5" y1="48" y2="48"/><!--MD5=[9060fca359142a3d363ceab339e9b867]
reverse link MonoBehaviour to LevelGenerator--><path d="M141.5,76.11 C141.5,89.31 141.5,103.54 141.5,115.65 " fill="none" id="MonoBehaviour&lt;-LevelGenerator" style="stroke: #A80036; stroke-width: 1.0;"/><polygon fill="none" points="134.5,76.04,141.5,56.04,148.5,76.04,134.5,76.04" style="stroke: #A80036; stroke-width: 1.0;"/><!--MD5=[67c763caa4ea372a7fabc68dc65770dd]
@startuml
class LevelGenerator {
    + Generate(_tileDatas:TileData[]) : List<Tile>
}
MonoBehaviour <|- - LevelGenerator
@enduml

PlantUML version 1.2020.02(Sun Mar 01 10:22:07 GMT 2020)
(GPL source distribution)
Java Runtime: OpenJDK Runtime Environment
JVM: OpenJDK 64-Bit Server VM
Java Version: 11.0.9+11-Ubuntu-0ubuntu1
Operating System: Linux
Default Encoding: ANSI_X3.4-1968
Language: en
Country: US
--></g></svg>