<?xml version="1.0" encoding="UTF-8" standalone="no"?><svg xmlns="http://www.w3.org/2000/svg" xmlns:xlink="http://www.w3.org/1999/xlink" contentScriptType="application/ecmascript" contentStyleType="text/css" height="385px" preserveAspectRatio="none" style="width:262px;height:385px;" version="1.1" viewBox="0 0 262 385" width="262px" zoomAndPan="magnify"><defs><filter height="300%" id="f18d8pbr6xfxb0" width="300%" x="-1" y="-1"><feGaussianBlur result="blurOut" stdDeviation="2.0"/><feColorMatrix in="blurOut" result="blurOut2" type="matrix" values="0 0 0 0 0 0 0 0 0 0 0 0 0 0 0 0 0 0 .4 0"/><feOffset dx="4.0" dy="4.0" in="blurOut2" result="blurOut3"/><feBlend in="SourceGraphic" in2="blurOut3" mode="normal"/></filter></defs><g><!--MD5=[282337bcbda18824f247f7d826f8d128]
class PlacementManager--><rect fill="#FEFECE" filter="url(#f18d8pbr6xfxb0)" height="99.2188" id="PlacementManager" style="stroke: #A80036; stroke-width: 1.5;" width="245" x="6" y="116"/><ellipse cx="63.75" cy="132" fill="#ADD1B2" rx="11" ry="11" style="stroke: #A80036; stroke-width: 1.0;"/><path d="M66.7188,137.6406 Q66.1406,137.9375 65.5,138.0781 Q64.8594,138.2344 64.1563,138.2344 Q61.6563,138.2344 60.3281,136.5938 Q59.0156,134.9375 59.0156,131.8125 Q59.0156,128.6875 60.3281,127.0313 Q61.6563,125.375 64.1563,125.375 Q64.8594,125.375 65.5,125.5313 Q66.1563,125.6875 66.7188,125.9844 L66.7188,128.7031 Q66.0938,128.125 65.5,127.8594 Q64.9063,127.5781 64.2813,127.5781 Q62.9375,127.5781 62.25,128.6563 Q61.5625,129.7188 61.5625,131.8125 Q61.5625,133.9063 62.25,134.9844 Q62.9375,136.0469 64.2813,136.0469 Q64.9063,136.0469 65.5,135.7813 Q66.0938,135.5 66.7188,134.9219 L66.7188,137.6406 Z "/><text fill="#000000" font-family="sans-serif" font-size="12" lengthAdjust="spacingAndGlyphs" textLength="121" x="84.25" y="136.1543">PlacementManager</text><line style="stroke: #A80036; stroke-width: 1.5;" x1="7" x2="250" y1="148" y2="148"/><line style="stroke: #A80036; stroke-width: 1.5;" x1="7" x2="250" y1="156" y2="156"/><ellipse cx="17" cy="167" fill="#84BE84" rx="3" ry="3" style="stroke: #038048; stroke-width: 1.0;"/><text fill="#000000" font-family="sans-serif" font-size="11" lengthAdjust="spacingAndGlyphs" textLength="219" x="26" y="170.2104">Initialize(_levelEditor:LevelEditor) : void</text><ellipse cx="17" cy="179.8047" fill="#84BE84" rx="3" ry="3" style="stroke: #038048; stroke-width: 1.0;"/><text fill="#000000" font-family="sans-serif" font-size="11" lengthAdjust="spacingAndGlyphs" textLength="99" x="26" y="183.0151">OnUpdate() : void</text><ellipse cx="17" cy="192.6094" fill="#84BE84" rx="3" ry="3" style="stroke: #038048; stroke-width: 1.0;"/><text fill="#000000" font-family="sans-serif" font-size="11" lengthAdjust="spacingAndGlyphs" textLength="201" x="26" y="195.8198">ChangeTileType(_tileType:int) : void</text><ellipse cx="17" cy="205.4141" fill="#84BE84" rx="3" ry="3" style="stroke: #038048; stroke-width: 1.0;"/><text fill="#000000" font-family="sans-serif" font-size="11" lengthAdjust="spacingAndGlyphs" textLength="138" x="26" y="208.6245">ToggleBulldozing() : void</text><!--MD5=[d717dc42f4793bedbf0435c102fbabf3]
class PlacingType--><rect fill="#FEFECE" filter="url(#f18d8pbr6xfxb0)" height="99.2188" id="PlacingType" style="stroke: #A80036; stroke-width: 1.5;" width="106" x="75.5" y="275"/><ellipse cx="90.5" cy="291" fill="#EB937F" rx="11" ry="11" style="stroke: #A80036; stroke-width: 1.0;"/><path d="M94.6094,297 L86.8906,297 L86.8906,284.6094 L94.6094,284.6094 L94.6094,286.7656 L89.3438,286.7656 L89.3438,289.4375 L94.1094,289.4375 L94.1094,291.5938 L89.3438,291.5938 L89.3438,294.8438 L94.6094,294.8438 L94.6094,297 Z "/><text fill="#000000" font-family="sans-serif" font-size="12" lengthAdjust="spacingAndGlyphs" textLength="74" x="104.5" y="295.1543">PlacingType</text><line style="stroke: #A80036; stroke-width: 1.5;" x1="76.5" x2="180.5" y1="307" y2="307"/><text fill="#000000" font-family="sans-serif" font-size="11" lengthAdjust="spacingAndGlyphs" textLength="33" x="81.5" y="321.2104">None,</text><text fill="#000000" font-family="sans-serif" font-size="11" lengthAdjust="spacingAndGlyphs" textLength="71" x="81.5" y="334.0151">PlacingTiles,</text><text fill="#000000" font-family="sans-serif" font-size="11" lengthAdjust="spacingAndGlyphs" textLength="61" x="81.5" y="346.8198">Bulldozing,</text><text fill="#000000" font-family="sans-serif" font-size="11" lengthAdjust="spacingAndGlyphs" textLength="79" x="81.5" y="359.6245">SwitchEditing,</text><line style="stroke: #A80036; stroke-width: 1.5;" x1="76.5" x2="180.5" y1="366.2188" y2="366.2188"/><!--MD5=[83b3cf3d23d77c6f1e1b5291a241bc2a]
class MonoBehaviour--><rect fill="#FEFECE" filter="url(#f18d8pbr6xfxb0)" height="48" id="MonoBehaviour" style="stroke: #A80036; stroke-width: 1.5;" width="128" x="64.5" y="8"/><ellipse cx="79.5" cy="24" fill="#ADD1B2" rx="11" ry="11" style="stroke: #A80036; stroke-width: 1.0;"/><path d="M82.4688,29.6406 Q81.8906,29.9375 81.25,30.0781 Q80.6094,30.2344 79.9063,30.2344 Q77.4063,30.2344 76.0781,28.5938 Q74.7656,26.9375 74.7656,23.8125 Q74.7656,20.6875 76.0781,19.0313 Q77.4063,17.375 79.9063,17.375 Q80.6094,17.375 81.25,17.5313 Q81.9063,17.6875 82.4688,17.9844 L82.4688,20.7031 Q81.8438,20.125 81.25,19.8594 Q80.6563,19.5781 80.0313,19.5781 Q78.6875,19.5781 78,20.6563 Q77.3125,21.7188 77.3125,23.8125 Q77.3125,25.9063 78,26.9844 Q78.6875,28.0469 80.0313,28.0469 Q80.6563,28.0469 81.25,27.7813 Q81.8438,27.5 82.4688,26.9219 L82.4688,29.6406 Z "/><text fill="#000000" font-family="sans-serif" font-size="12" lengthAdjust="spacingAndGlyphs" textLength="96" x="93.5" y="28.1543">MonoBehaviour</text><line style="stroke: #A80036; stroke-width: 1.5;" x1="65.5" x2="191.5" y1="40" y2="40"/><line style="stroke: #A80036; stroke-width: 1.5;" x1="65.5" x2="191.5" y1="48" y2="48"/><!--MD5=[6ef15c132aa71b6572665711166a5ef7]
reverse link MonoBehaviour to PlacementManager--><path d="M128.5,76.51 C128.5,89.14 128.5,103.01 128.5,115.93 " fill="none" id="MonoBehaviour&lt;-PlacementManager" style="stroke: #A80036; stroke-width: 1.0;"/><polygon fill="none" points="121.5,76.21,128.5,56.21,135.5,76.21,121.5,76.21" style="stroke: #A80036; stroke-width: 1.0;"/><!--MD5=[2becc923147426ffe36d5b8300b7b414]
reverse link PlacementManager to PlacingType--><path d="M128.5,230.45 C128.5,245.32 128.5,260.91 128.5,274.98 " fill="none" id="PlacementManager&lt;-PlacingType" style="stroke: #A80036; stroke-width: 1.0;"/><ellipse cx="128.5" cy="223.32" fill="#FFFFFF" rx="8" ry="8" style="stroke: #A80036; stroke-width: 1.0;"/><line style="stroke: #A80036; stroke-width: 1.0;" x1="128.5" x2="128.5" y1="231.32" y2="215.32"/><line style="stroke: #A80036; stroke-width: 1.0;" x1="120.5" x2="136.5" y1="223.32" y2="223.32"/><!--MD5=[2ee9c36cd2694b2b20c55d4dac0403ea]
@startuml
class PlacementManager {
    + Initialize(_levelEditor:LevelEditor) : void
    + OnUpdate() : void
    + ChangeTileType(_tileType:int) : void
    + ToggleBulldozing() : void
}
enum PlacingType {
    None,
    PlacingTiles,
    Bulldozing,
    SwitchEditing,
}
MonoBehaviour <|- - PlacementManager
PlacementManager +- - PlacingType
@enduml

PlantUML version 1.2020.02(Sun Mar 01 10:22:07 GMT 2020)
(GPL source distribution)
Java Runtime: OpenJDK Runtime Environment
JVM: OpenJDK 64-Bit Server VM
Java Version: 11.0.9+11-Ubuntu-0ubuntu1
Operating System: Linux
Default Encoding: ANSI_X3.4-1968
Language: en
Country: US
--></g></svg>