<?xml version="1.0" encoding="UTF-8" standalone="no"?><svg xmlns="http://www.w3.org/2000/svg" xmlns:xlink="http://www.w3.org/1999/xlink" contentScriptType="application/ecmascript" contentStyleType="text/css" height="187px" preserveAspectRatio="none" style="width:199px;height:187px;" version="1.1" viewBox="0 0 199 187" width="199px" zoomAndPan="magnify"><defs><filter height="300%" id="f1n7wvrenmbicg" width="300%" x="-1" y="-1"><feGaussianBlur result="blurOut" stdDeviation="2.0"/><feColorMatrix in="blurOut" result="blurOut2" type="matrix" values="0 0 0 0 0 0 0 0 0 0 0 0 0 0 0 0 0 0 .4 0"/><feOffset dx="4.0" dy="4.0" in="blurOut2" result="blurOut3"/><feBlend in="SourceGraphic" in2="blurOut3" mode="normal"/></filter></defs><g><!--MD5=[3c8fe0b06267306468f12ad241f80527]
class ScriptableSingleton`1--><rect fill="#FEFECE" filter="url(#f1n7wvrenmbicg)" height="60.8047" id="ScriptableSingleton`1" style="stroke: #A80036; stroke-width: 1.5;" width="179" x="6" y="116"/><ellipse cx="21" cy="132" fill="#ADD1B2" rx="11" ry="11" style="stroke: #A80036; stroke-width: 1.0;"/><path d="M23.9688,137.6406 Q23.3906,137.9375 22.75,138.0781 Q22.1094,138.2344 21.4063,138.2344 Q18.9063,138.2344 17.5781,136.5938 Q16.2656,134.9375 16.2656,131.8125 Q16.2656,128.6875 17.5781,127.0313 Q18.9063,125.375 21.4063,125.375 Q22.1094,125.375 22.75,125.5313 Q23.4063,125.6875 23.9688,125.9844 L23.9688,128.7031 Q23.3438,128.125 22.75,127.8594 Q22.1563,127.5781 21.5313,127.5781 Q20.1875,127.5781 19.5,128.6563 Q18.8125,129.7188 18.8125,131.8125 Q18.8125,133.9063 19.5,134.9844 Q20.1875,136.0469 21.5313,136.0469 Q22.1563,136.0469 22.75,135.7813 Q23.3438,135.5 23.9688,134.9219 L23.9688,137.6406 Z "/><text fill="#000000" font-family="sans-serif" font-size="12" lengthAdjust="spacingAndGlyphs" textLength="136" x="35" y="136.1543">ScriptableSingleton`1</text><rect fill="#FFFFFF" height="15.9688" style="stroke: #000000; stroke-width: 1.0; stroke-dasharray: 2.0,2.0;" width="9" x="179" y="113"/><text fill="#000000" font-family="sans-serif" font-size="12" font-style="italic" lengthAdjust="spacingAndGlyphs" textLength="7" x="180" y="125.1387">T</text><line style="stroke: #A80036; stroke-width: 1.5;" x1="7" x2="184" y1="148" y2="148"/><ellipse cx="17" cy="159" fill="none" rx="3" ry="3" style="stroke: #038048; stroke-width: 1.0;"/><text fill="#000000" font-family="sans-serif" font-size="11" lengthAdjust="spacingAndGlyphs" text-decoration="underline" textLength="103" x="26" y="162.2104">Instance : T «get»</text><line style="stroke: #A80036; stroke-width: 1.5;" x1="7" x2="184" y1="168.8047" y2="168.8047"/><!--MD5=[44895057fba17b10f3053a7baa21df04]
class ScriptableObject--><rect fill="#FEFECE" filter="url(#f1n7wvrenmbicg)" height="48" id="ScriptableObject" style="stroke: #A80036; stroke-width: 1.5;" width="135" x="28" y="8"/><ellipse cx="43" cy="24" fill="#ADD1B2" rx="11" ry="11" style="stroke: #A80036; stroke-width: 1.0;"/><path d="M45.9688,29.6406 Q45.3906,29.9375 44.75,30.0781 Q44.1094,30.2344 43.4063,30.2344 Q40.9063,30.2344 39.5781,28.5938 Q38.2656,26.9375 38.2656,23.8125 Q38.2656,20.6875 39.5781,19.0313 Q40.9063,17.375 43.4063,17.375 Q44.1094,17.375 44.75,17.5313 Q45.4063,17.6875 45.9688,17.9844 L45.9688,20.7031 Q45.3438,20.125 44.75,19.8594 Q44.1563,19.5781 43.5313,19.5781 Q42.1875,19.5781 41.5,20.6563 Q40.8125,21.7188 40.8125,23.8125 Q40.8125,25.9063 41.5,26.9844 Q42.1875,28.0469 43.5313,28.0469 Q44.1563,28.0469 44.75,27.7813 Q45.3438,27.5 45.9688,26.9219 L45.9688,29.6406 Z "/><text fill="#000000" font-family="sans-serif" font-size="12" lengthAdjust="spacingAndGlyphs" textLength="103" x="57" y="28.1543">ScriptableObject</text><line style="stroke: #A80036; stroke-width: 1.5;" x1="29" x2="162" y1="40" y2="40"/><line style="stroke: #A80036; stroke-width: 1.5;" x1="29" x2="162" y1="48" y2="48"/><!--MD5=[815b91064427e4b890351cb8a44295b8]
reverse link ScriptableObject to ScriptableSingleton`1--><path d="M95.5,76.11 C95.5,89.31 95.5,103.54 95.5,115.65 " fill="none" id="ScriptableObject&lt;-ScriptableSingleton`1" style="stroke: #A80036; stroke-width: 1.0;"/><polygon fill="none" points="88.5,76.04,95.5,56.04,102.5,76.04,88.5,76.04" style="stroke: #A80036; stroke-width: 1.0;"/><!--MD5=[e8f5d64619cea02db4bb9e0fe1ec5f33]
@startuml
class "ScriptableSingleton`1"<T> {
    + {static} Instance : T <<get>>
}
ScriptableObject <|- - "ScriptableSingleton`1"
@enduml

PlantUML version 1.2020.02(Sun Mar 01 10:22:07 GMT 2020)
(GPL source distribution)
Java Runtime: OpenJDK Runtime Environment
JVM: OpenJDK 64-Bit Server VM
Java Version: 11.0.9+11-Ubuntu-0ubuntu1
Operating System: Linux
Default Encoding: ANSI_X3.4-1968
Language: en
Country: US
--></g></svg>