<?xml version="1.0" encoding="UTF-8" standalone="no"?><svg xmlns="http://www.w3.org/2000/svg" xmlns:xlink="http://www.w3.org/1999/xlink" contentScriptType="application/ecmascript" contentStyleType="text/css" height="226px" preserveAspectRatio="none" style="width:271px;height:226px;" version="1.1" viewBox="0 0 271 226" width="271px" zoomAndPan="magnify"><defs><filter height="300%" id="fxd9ilp5k5g27" width="300%" x="-1" y="-1"><feGaussianBlur result="blurOut" stdDeviation="2.0"/><feColorMatrix in="blurOut" result="blurOut2" type="matrix" values="0 0 0 0 0 0 0 0 0 0 0 0 0 0 0 0 0 0 .4 0"/><feOffset dx="4.0" dy="4.0" in="blurOut2" result="blurOut3"/><feBlend in="SourceGraphic" in2="blurOut3" mode="normal"/></filter></defs><g><!--MD5=[d92242e7011a49168775914afcf15d10]
class SwitchContextMenu--><rect fill="#FEFECE" filter="url(#fxd9ilp5k5g27)" height="99.2188" id="SwitchContextMenu" style="stroke: #A80036; stroke-width: 1.5;" width="254" x="6" y="116"/><ellipse cx="67.75" cy="132" fill="#ADD1B2" rx="11" ry="11" style="stroke: #A80036; stroke-width: 1.0;"/><path d="M70.7188,137.6406 Q70.1406,137.9375 69.5,138.0781 Q68.8594,138.2344 68.1563,138.2344 Q65.6563,138.2344 64.3281,136.5938 Q63.0156,134.9375 63.0156,131.8125 Q63.0156,128.6875 64.3281,127.0313 Q65.6563,125.375 68.1563,125.375 Q68.8594,125.375 69.5,125.5313 Q70.1563,125.6875 70.7188,125.9844 L70.7188,128.7031 Q70.0938,128.125 69.5,127.8594 Q68.9063,127.5781 68.2813,127.5781 Q66.9375,127.5781 66.25,128.6563 Q65.5625,129.7188 65.5625,131.8125 Q65.5625,133.9063 66.25,134.9844 Q66.9375,136.0469 68.2813,136.0469 Q68.9063,136.0469 69.5,135.7813 Q70.0938,135.5 70.7188,134.9219 L70.7188,137.6406 Z "/><text fill="#000000" font-family="sans-serif" font-size="12" lengthAdjust="spacingAndGlyphs" textLength="122" x="88.25" y="136.1543">SwitchContextMenu</text><line style="stroke: #A80036; stroke-width: 1.5;" x1="7" x2="259" y1="148" y2="148"/><line style="stroke: #A80036; stroke-width: 1.5;" x1="7" x2="259" y1="156" y2="156"/><ellipse cx="17" cy="167" fill="#84BE84" rx="3" ry="3" style="stroke: #038048; stroke-width: 1.0;"/><text fill="#000000" font-family="sans-serif" font-size="11" lengthAdjust="spacingAndGlyphs" textLength="218" x="26" y="170.2104">OnStart(_levelEditor:LevelEditor) : void</text><ellipse cx="17" cy="179.8047" fill="#84BE84" rx="3" ry="3" style="stroke: #038048; stroke-width: 1.0;"/><text fill="#000000" font-family="sans-serif" font-size="11" lengthAdjust="spacingAndGlyphs" textLength="211" x="26" y="183.0151">Initialize(_switchTile:SwitchTile) : void</text><ellipse cx="17" cy="192.6094" fill="#84BE84" rx="3" ry="3" style="stroke: #038048; stroke-width: 1.0;"/><text fill="#000000" font-family="sans-serif" font-size="11" lengthAdjust="spacingAndGlyphs" textLength="203" x="26" y="195.8198">OnStateSliderValueChanged() : void</text><ellipse cx="17" cy="205.4141" fill="#84BE84" rx="3" ry="3" style="stroke: #038048; stroke-width: 1.0;"/><text fill="#000000" font-family="sans-serif" font-size="11" lengthAdjust="spacingAndGlyphs" textLength="228" x="26" y="208.6245">OnInputTypeSliderValueChanged() : void</text><!--MD5=[83b3cf3d23d77c6f1e1b5291a241bc2a]
class MonoBehaviour--><rect fill="#FEFECE" filter="url(#fxd9ilp5k5g27)" height="48" id="MonoBehaviour" style="stroke: #A80036; stroke-width: 1.5;" width="128" x="69" y="8"/><ellipse cx="84" cy="24" fill="#ADD1B2" rx="11" ry="11" style="stroke: #A80036; stroke-width: 1.0;"/><path d="M86.9688,29.6406 Q86.3906,29.9375 85.75,30.0781 Q85.1094,30.2344 84.4063,30.2344 Q81.9063,30.2344 80.5781,28.5938 Q79.2656,26.9375 79.2656,23.8125 Q79.2656,20.6875 80.5781,19.0313 Q81.9063,17.375 84.4063,17.375 Q85.1094,17.375 85.75,17.5313 Q86.4063,17.6875 86.9688,17.9844 L86.9688,20.7031 Q86.3438,20.125 85.75,19.8594 Q85.1563,19.5781 84.5313,19.5781 Q83.1875,19.5781 82.5,20.6563 Q81.8125,21.7188 81.8125,23.8125 Q81.8125,25.9063 82.5,26.9844 Q83.1875,28.0469 84.5313,28.0469 Q85.1563,28.0469 85.75,27.7813 Q86.3438,27.5 86.9688,26.9219 L86.9688,29.6406 Z "/><text fill="#000000" font-family="sans-serif" font-size="12" lengthAdjust="spacingAndGlyphs" textLength="96" x="98" y="28.1543">MonoBehaviour</text><line style="stroke: #A80036; stroke-width: 1.5;" x1="70" x2="196" y1="40" y2="40"/><line style="stroke: #A80036; stroke-width: 1.5;" x1="70" x2="196" y1="48" y2="48"/><!--MD5=[29361f02899aab363fb67e396609e6ff]
reverse link MonoBehaviour to SwitchContextMenu--><path d="M133,76.51 C133,89.14 133,103.01 133,115.93 " fill="none" id="MonoBehaviour&lt;-SwitchContextMenu" style="stroke: #A80036; stroke-width: 1.0;"/><polygon fill="none" points="126,76.21,133,56.21,140,76.21,126,76.21" style="stroke: #A80036; stroke-width: 1.0;"/><!--MD5=[58930f01d99ae3a82f4bdec3f06866f6]
@startuml
class SwitchContextMenu {
    + OnStart(_levelEditor:LevelEditor) : void
    + Initialize(_switchTile:SwitchTile) : void
    + OnStateSliderValueChanged() : void
    + OnInputTypeSliderValueChanged() : void
}
MonoBehaviour <|- - SwitchContextMenu
@enduml

PlantUML version 1.2020.02(Sun Mar 01 10:22:07 GMT 2020)
(GPL source distribution)
Java Runtime: OpenJDK Runtime Environment
JVM: OpenJDK 64-Bit Server VM
Java Version: 11.0.9+11-Ubuntu-0ubuntu1
Operating System: Linux
Default Encoding: ANSI_X3.4-1968
Language: en
Country: US
--></g></svg>