<?xml version="1.0" encoding="UTF-8" standalone="no"?><svg xmlns="http://www.w3.org/2000/svg" xmlns:xlink="http://www.w3.org/1999/xlink" contentScriptType="application/ecmascript" contentStyleType="text/css" height="213px" preserveAspectRatio="none" style="width:464px;height:213px;" version="1.1" viewBox="0 0 464 213" width="464px" zoomAndPan="magnify"><defs><filter height="300%" id="f1lejxplxv22oq" width="300%" x="-1" y="-1"><feGaussianBlur result="blurOut" stdDeviation="2.0"/><feColorMatrix in="blurOut" result="blurOut2" type="matrix" values="0 0 0 0 0 0 0 0 0 0 0 0 0 0 0 0 0 0 .4 0"/><feOffset dx="4.0" dy="4.0" in="blurOut2" result="blurOut3"/><feBlend in="SourceGraphic" in2="blurOut3" mode="normal"/></filter></defs><g><!--MD5=[cd04162751556f89ec3ef485288b93f3]
class TileDatabase--><rect fill="#FEFECE" filter="url(#f1lejxplxv22oq)" height="86.4141" id="TileDatabase" style="stroke: #A80036; stroke-width: 1.5;" width="447" x="6" y="116"/><ellipse cx="184.25" cy="132" fill="#ADD1B2" rx="11" ry="11" style="stroke: #A80036; stroke-width: 1.0;"/><path d="M187.2188,137.6406 Q186.6406,137.9375 186,138.0781 Q185.3594,138.2344 184.6563,138.2344 Q182.1563,138.2344 180.8281,136.5938 Q179.5156,134.9375 179.5156,131.8125 Q179.5156,128.6875 180.8281,127.0313 Q182.1563,125.375 184.6563,125.375 Q185.3594,125.375 186,125.5313 Q186.6563,125.6875 187.2188,125.9844 L187.2188,128.7031 Q186.5938,128.125 186,127.8594 Q185.4063,127.5781 184.7813,127.5781 Q183.4375,127.5781 182.75,128.6563 Q182.0625,129.7188 182.0625,131.8125 Q182.0625,133.9063 182.75,134.9844 Q183.4375,136.0469 184.7813,136.0469 Q185.4063,136.0469 186,135.7813 Q186.5938,135.5 187.2188,134.9219 L187.2188,137.6406 Z "/><text fill="#000000" font-family="sans-serif" font-size="12" lengthAdjust="spacingAndGlyphs" textLength="82" x="204.75" y="136.1543">TileDatabase</text><line style="stroke: #A80036; stroke-width: 1.5;" x1="7" x2="452" y1="148" y2="148"/><line style="stroke: #A80036; stroke-width: 1.5;" x1="7" x2="452" y1="156" y2="156"/><ellipse cx="17" cy="167" fill="#84BE84" rx="3" ry="3" style="stroke: #038048; stroke-width: 1.0;"/><text fill="#000000" font-family="sans-serif" font-size="11" lengthAdjust="spacingAndGlyphs" textLength="252" x="26" y="170.2104">GetTileByType(_type:TileType) : GameObject</text><ellipse cx="17" cy="179.8047" fill="#84BE84" rx="3" ry="3" style="stroke: #038048; stroke-width: 1.0;"/><text fill="#000000" font-family="sans-serif" font-size="11" lengthAdjust="spacingAndGlyphs" textLength="421" x="26" y="183.0151">GetSwitchStateIndicator(_state:SwitchState, _type:TileType) : GameObject</text><ellipse cx="17" cy="192.6094" fill="#84BE84" rx="3" ry="3" style="stroke: #038048; stroke-width: 1.0;"/><text fill="#000000" font-family="sans-serif" font-size="11" lengthAdjust="spacingAndGlyphs" textLength="344" x="26" y="195.8198">GetInputIndicator(_inputType:SwitchInputType) : GameObject</text><!--MD5=[3c8fe0b06267306468f12ad241f80527]
class ScriptableSingleton`1--><rect fill="#FEFECE" filter="url(#f1lejxplxv22oq)" height="48" id="ScriptableSingleton`1" style="stroke: #A80036; stroke-width: 1.5;" width="179" x="140" y="8"/><ellipse cx="155" cy="24" fill="#ADD1B2" rx="11" ry="11" style="stroke: #A80036; stroke-width: 1.0;"/><path d="M157.9688,29.6406 Q157.3906,29.9375 156.75,30.0781 Q156.1094,30.2344 155.4063,30.2344 Q152.9063,30.2344 151.5781,28.5938 Q150.2656,26.9375 150.2656,23.8125 Q150.2656,20.6875 151.5781,19.0313 Q152.9063,17.375 155.4063,17.375 Q156.1094,17.375 156.75,17.5313 Q157.4063,17.6875 157.9688,17.9844 L157.9688,20.7031 Q157.3438,20.125 156.75,19.8594 Q156.1563,19.5781 155.5313,19.5781 Q154.1875,19.5781 153.5,20.6563 Q152.8125,21.7188 152.8125,23.8125 Q152.8125,25.9063 153.5,26.9844 Q154.1875,28.0469 155.5313,28.0469 Q156.1563,28.0469 156.75,27.7813 Q157.3438,27.5 157.9688,26.9219 L157.9688,29.6406 Z "/><text fill="#000000" font-family="sans-serif" font-size="12" lengthAdjust="spacingAndGlyphs" textLength="136" x="169" y="28.1543">ScriptableSingleton`1</text><rect fill="#FFFFFF" height="15.9688" style="stroke: #000000; stroke-width: 1.0; stroke-dasharray: 2.0,2.0;" width="9" x="313" y="5"/><text fill="#000000" font-family="sans-serif" font-size="12" font-style="italic" lengthAdjust="spacingAndGlyphs" textLength="7" x="314" y="17.1387">T</text><line style="stroke: #A80036; stroke-width: 1.5;" x1="141" x2="318" y1="40" y2="40"/><line style="stroke: #A80036; stroke-width: 1.5;" x1="141" x2="318" y1="48" y2="48"/><!--MD5=[139d46ade275e3f47fcfc80672918215]
reverse link ScriptableSingleton`1 to TileDatabase--><path d="M229.5,76.27 C229.5,89.12 229.5,103.17 229.5,115.94 " fill="none" id="ScriptableSingleton`1&lt;-TileDatabase" style="stroke: #A80036; stroke-width: 1.0;"/><polygon fill="none" points="222.5,76.22,229.5,56.22,236.5,76.22,222.5,76.22" style="stroke: #A80036; stroke-width: 1.0;"/><text fill="#000000" font-family="sans-serif" font-size="13" lengthAdjust="spacingAndGlyphs" textLength="105" x="111.7031" y="76.0348">&lt;TileDatabase&gt;</text><!--MD5=[1a984fbe2ffb99bc7b1de5a35902c0fa]
@startuml
class TileDatabase {
    + GetTileByType(_type:TileType) : GameObject
    + GetSwitchStateIndicator(_state:SwitchState, _type:TileType) : GameObject
    + GetInputIndicator(_inputType:SwitchInputType) : GameObject
}
class "ScriptableSingleton`1"<T> {
}
"ScriptableSingleton`1" "<TileDatabase>" <|- - TileDatabase
@enduml

PlantUML version 1.2020.02(Sun Mar 01 10:22:07 GMT 2020)
(GPL source distribution)
Java Runtime: OpenJDK Runtime Environment
JVM: OpenJDK 64-Bit Server VM
Java Version: 11.0.9+11-Ubuntu-0ubuntu1
Operating System: Linux
Default Encoding: ANSI_X3.4-1968
Language: en
Country: US
--></g></svg>