<?xml version="1.0" encoding="UTF-8" standalone="no"?><svg xmlns="http://www.w3.org/2000/svg" xmlns:xlink="http://www.w3.org/1999/xlink" contentScriptType="application/ecmascript" contentStyleType="text/css" height="226px" preserveAspectRatio="none" style="width:676px;height:226px;" version="1.1" viewBox="0 0 676 226" width="676px" zoomAndPan="magnify"><defs><filter height="300%" id="f1dwl9qrd1drmm" width="300%" x="-1" y="-1"><feGaussianBlur result="blurOut" stdDeviation="2.0"/><feColorMatrix in="blurOut" result="blurOut2" type="matrix" values="0 0 0 0 0 0 0 0 0 0 0 0 0 0 0 0 0 0 .4 0"/><feOffset dx="4.0" dy="4.0" in="blurOut2" result="blurOut3"/><feBlend in="SourceGraphic" in2="blurOut3" mode="normal"/></filter></defs><g><!--MD5=[3d91eed8a5fb97066f89b7a9b5f07894]
class TileData--><rect fill="#FEFECE" filter="url(#f1dwl9qrd1drmm)" height="99.2188" id="TileData" style="stroke: #A80036; stroke-width: 1.5;" width="659" x="6" y="8"/><ellipse cx="305.75" cy="24" fill="#ADD1B2" rx="11" ry="11" style="stroke: #A80036; stroke-width: 1.0;"/><path d="M308.7188,29.6406 Q308.1406,29.9375 307.5,30.0781 Q306.8594,30.2344 306.1563,30.2344 Q303.6563,30.2344 302.3281,28.5938 Q301.0156,26.9375 301.0156,23.8125 Q301.0156,20.6875 302.3281,19.0313 Q303.6563,17.375 306.1563,17.375 Q306.8594,17.375 307.5,17.5313 Q308.1563,17.6875 308.7188,17.9844 L308.7188,20.7031 Q308.0938,20.125 307.5,19.8594 Q306.9063,19.5781 306.2813,19.5781 Q304.9375,19.5781 304.25,20.6563 Q303.5625,21.7188 303.5625,23.8125 Q303.5625,25.9063 304.25,26.9844 Q304.9375,28.0469 306.2813,28.0469 Q306.9063,28.0469 307.5,27.7813 Q308.0938,27.5 308.7188,26.9219 L308.7188,29.6406 Z "/><text fill="#000000" font-family="sans-serif" font-size="12" lengthAdjust="spacingAndGlyphs" textLength="51" x="326.25" y="28.1543">TileData</text><line style="stroke: #A80036; stroke-width: 1.5;" x1="7" x2="664" y1="40" y2="40"/><ellipse cx="17" cy="51" fill="none" rx="3" ry="3" style="stroke: #038048; stroke-width: 1.0;"/><text fill="#000000" font-family="sans-serif" font-size="11" lengthAdjust="spacingAndGlyphs" textLength="32" x="26" y="54.2104">x : int</text><ellipse cx="17" cy="63.8047" fill="none" rx="3" ry="3" style="stroke: #038048; stroke-width: 1.0;"/><text fill="#000000" font-family="sans-serif" font-size="11" lengthAdjust="spacingAndGlyphs" textLength="31" x="26" y="67.0151">z : int</text><line style="stroke: #A80036; stroke-width: 1.5;" x1="7" x2="664" y1="73.6094" y2="73.6094"/><ellipse cx="17" cy="84.6094" fill="#84BE84" rx="3" ry="3" style="stroke: #038048; stroke-width: 1.0;"/><text fill="#000000" font-family="sans-serif" font-size="11" lengthAdjust="spacingAndGlyphs" textLength="54" x="26" y="87.8198">TileData()</text><ellipse cx="17" cy="97.4141" fill="#84BE84" rx="3" ry="3" style="stroke: #038048; stroke-width: 1.0;"/><text fill="#000000" font-family="sans-serif" font-size="11" lengthAdjust="spacingAndGlyphs" textLength="633" x="26" y="100.6245">TileData(_pos:Vector3, _rot:TileRotation, _type:TileType, _switchState:SwitchState, _inputType:SwitchInputType)</text><!--MD5=[67dc9d447ac5dbb625e3d503755a5c3a]
class TileType--><rect fill="#FEFECE" filter="url(#f1dwl9qrd1drmm)" height="48" id="TileType" style="stroke: #A80036; stroke-width: 1.5;" width="82" x="95.5" y="167"/><ellipse cx="110.5" cy="183" fill="#ADD1B2" rx="11" ry="11" style="stroke: #A80036; stroke-width: 1.0;"/><path d="M113.4688,188.6406 Q112.8906,188.9375 112.25,189.0781 Q111.6094,189.2344 110.9063,189.2344 Q108.4063,189.2344 107.0781,187.5938 Q105.7656,185.9375 105.7656,182.8125 Q105.7656,179.6875 107.0781,178.0313 Q108.4063,176.375 110.9063,176.375 Q111.6094,176.375 112.25,176.5313 Q112.9063,176.6875 113.4688,176.9844 L113.4688,179.7031 Q112.8438,179.125 112.25,178.8594 Q111.6563,178.5781 111.0313,178.5781 Q109.6875,178.5781 109,179.6563 Q108.3125,180.7188 108.3125,182.8125 Q108.3125,184.9063 109,185.9844 Q109.6875,187.0469 111.0313,187.0469 Q111.6563,187.0469 112.25,186.7813 Q112.8438,186.5 113.4688,185.9219 L113.4688,188.6406 Z "/><text fill="#000000" font-family="sans-serif" font-size="12" lengthAdjust="spacingAndGlyphs" textLength="50" x="124.5" y="187.1543">TileType</text><line style="stroke: #A80036; stroke-width: 1.5;" x1="96.5" x2="176.5" y1="199" y2="199"/><line style="stroke: #A80036; stroke-width: 1.5;" x1="96.5" x2="176.5" y1="207" y2="207"/><!--MD5=[c817e6524c5f11895781edab84026831]
class TileRotation--><rect fill="#FEFECE" filter="url(#f1dwl9qrd1drmm)" height="48" id="TileRotation" style="stroke: #A80036; stroke-width: 1.5;" width="106" x="212.5" y="167"/><ellipse cx="227.5" cy="183" fill="#ADD1B2" rx="11" ry="11" style="stroke: #A80036; stroke-width: 1.0;"/><path d="M230.4688,188.6406 Q229.8906,188.9375 229.25,189.0781 Q228.6094,189.2344 227.9063,189.2344 Q225.4063,189.2344 224.0781,187.5938 Q222.7656,185.9375 222.7656,182.8125 Q222.7656,179.6875 224.0781,178.0313 Q225.4063,176.375 227.9063,176.375 Q228.6094,176.375 229.25,176.5313 Q229.9063,176.6875 230.4688,176.9844 L230.4688,179.7031 Q229.8438,179.125 229.25,178.8594 Q228.6563,178.5781 228.0313,178.5781 Q226.6875,178.5781 226,179.6563 Q225.3125,180.7188 225.3125,182.8125 Q225.3125,184.9063 226,185.9844 Q226.6875,187.0469 228.0313,187.0469 Q228.6563,187.0469 229.25,186.7813 Q229.8438,186.5 230.4688,185.9219 L230.4688,188.6406 Z "/><text fill="#000000" font-family="sans-serif" font-size="12" lengthAdjust="spacingAndGlyphs" textLength="74" x="241.5" y="187.1543">TileRotation</text><line style="stroke: #A80036; stroke-width: 1.5;" x1="213.5" x2="317.5" y1="199" y2="199"/><line style="stroke: #A80036; stroke-width: 1.5;" x1="213.5" x2="317.5" y1="207" y2="207"/><!--MD5=[4e88cbc3124b210b595c12624054c31d]
class SwitchState--><rect fill="#FEFECE" filter="url(#f1dwl9qrd1drmm)" height="48" id="SwitchState" style="stroke: #A80036; stroke-width: 1.5;" width="106" x="353.5" y="167"/><ellipse cx="368.5" cy="183" fill="#ADD1B2" rx="11" ry="11" style="stroke: #A80036; stroke-width: 1.0;"/><path d="M371.4688,188.6406 Q370.8906,188.9375 370.25,189.0781 Q369.6094,189.2344 368.9063,189.2344 Q366.4063,189.2344 365.0781,187.5938 Q363.7656,185.9375 363.7656,182.8125 Q363.7656,179.6875 365.0781,178.0313 Q366.4063,176.375 368.9063,176.375 Q369.6094,176.375 370.25,176.5313 Q370.9063,176.6875 371.4688,176.9844 L371.4688,179.7031 Q370.8438,179.125 370.25,178.8594 Q369.6563,178.5781 369.0313,178.5781 Q367.6875,178.5781 367,179.6563 Q366.3125,180.7188 366.3125,182.8125 Q366.3125,184.9063 367,185.9844 Q367.6875,187.0469 369.0313,187.0469 Q369.6563,187.0469 370.25,186.7813 Q370.8438,186.5 371.4688,185.9219 L371.4688,188.6406 Z "/><text fill="#000000" font-family="sans-serif" font-size="12" lengthAdjust="spacingAndGlyphs" textLength="74" x="382.5" y="187.1543">SwitchState</text><line style="stroke: #A80036; stroke-width: 1.5;" x1="354.5" x2="458.5" y1="199" y2="199"/><line style="stroke: #A80036; stroke-width: 1.5;" x1="354.5" x2="458.5" y1="207" y2="207"/><!--MD5=[e49b9f65deba2a0e6fd492e1917094e1]
class SwitchInputType--><rect fill="#FEFECE" filter="url(#f1dwl9qrd1drmm)" height="48" id="SwitchInputType" style="stroke: #A80036; stroke-width: 1.5;" width="133" x="495" y="167"/><ellipse cx="510" cy="183" fill="#ADD1B2" rx="11" ry="11" style="stroke: #A80036; stroke-width: 1.0;"/><path d="M512.9688,188.6406 Q512.3906,188.9375 511.75,189.0781 Q511.1094,189.2344 510.4063,189.2344 Q507.9063,189.2344 506.5781,187.5938 Q505.2656,185.9375 505.2656,182.8125 Q505.2656,179.6875 506.5781,178.0313 Q507.9063,176.375 510.4063,176.375 Q511.1094,176.375 511.75,176.5313 Q512.4063,176.6875 512.9688,176.9844 L512.9688,179.7031 Q512.3438,179.125 511.75,178.8594 Q511.1563,178.5781 510.5313,178.5781 Q509.1875,178.5781 508.5,179.6563 Q507.8125,180.7188 507.8125,182.8125 Q507.8125,184.9063 508.5,185.9844 Q509.1875,187.0469 510.5313,187.0469 Q511.1563,187.0469 511.75,186.7813 Q512.3438,186.5 512.9688,185.9219 L512.9688,188.6406 Z "/><text fill="#000000" font-family="sans-serif" font-size="12" lengthAdjust="spacingAndGlyphs" textLength="101" x="524" y="187.1543">SwitchInputType</text><line style="stroke: #A80036; stroke-width: 1.5;" x1="496" x2="627" y1="199" y2="199"/><line style="stroke: #A80036; stroke-width: 1.5;" x1="496" x2="627" y1="207" y2="207"/><!--MD5=[432b9ba1f50958b6ef2f0b5245868ca5]
link TileData to TileType--><path d="M261.97,107.09 C232.66,126.46 200.12,147.96 175.53,164.21 " fill="none" id="TileData-&gt;TileType" style="stroke: #A80036; stroke-width: 1.0;"/><polygon fill="#A80036" points="171.34,166.98,181.0538,165.3544,175.5112,164.223,176.6426,158.6804,171.34,166.98" style="stroke: #A80036; stroke-width: 1.0;"/><text fill="#000000" font-family="sans-serif" font-size="13" lengthAdjust="spacingAndGlyphs" textLength="49" x="124.9896" y="155.9869">tileType</text><!--MD5=[5e2da7af8ff0ca813ae36434331a368d]
link TileData to TileRotation--><path d="M309.63,107.09 C299.75,125.66 288.82,146.18 280.31,162.17 " fill="none" id="TileData-&gt;TileRotation" style="stroke: #A80036; stroke-width: 1.0;"/><polygon fill="#A80036" points="277.76,166.98,285.5278,160.9251,280.1152,162.5694,278.4708,157.1568,277.76,166.98" style="stroke: #A80036; stroke-width: 1.0;"/><text fill="#000000" font-family="sans-serif" font-size="13" lengthAdjust="spacingAndGlyphs" textLength="72" x="199.6766" y="155.9869">tileRotation</text><!--MD5=[3e9cad14c5d221c043cfc6b7c63fb9f2]
link TileData to SwitchState--><path d="M361.74,107.09 C371.76,125.66 382.84,146.18 391.47,162.17 " fill="none" id="TileData-&gt;SwitchState" style="stroke: #A80036; stroke-width: 1.0;"/><polygon fill="#A80036" points="394.07,166.98,393.3212,157.1596,391.6978,162.5786,386.2789,160.9552,394.07,166.98" style="stroke: #A80036; stroke-width: 1.0;"/><text fill="#000000" font-family="sans-serif" font-size="13" lengthAdjust="spacingAndGlyphs" textLength="74" x="318.8507" y="155.8387">switchState</text><!--MD5=[95e5f335f06f4b152f67bf5b3d0da449]
link TileData to SwitchInputType--><path d="M419.01,107.09 C452.43,126.54 489.55,148.14 517.52,164.41 " fill="none" id="TileData-&gt;SwitchInputType" style="stroke: #A80036; stroke-width: 1.0;"/><polygon fill="#A80036" points="521.93,166.98,516.1682,158.9924,517.6101,164.4624,512.1401,165.9043,521.93,166.98" style="stroke: #A80036; stroke-width: 1.0;"/><text fill="#000000" font-family="sans-serif" font-size="13" lengthAdjust="spacingAndGlyphs" textLength="101" x="437.4536" y="155.9252">switchInputType</text><!--MD5=[65779b17657600de8086905d191e0e3a]
@startuml
class TileData {
    + x : int
    + z : int
    + TileData()
    + TileData(_pos:Vector3, _rot:TileRotation, _type:TileType, _switchState:SwitchState, _inputType:SwitchInputType)
}
TileData - -> "tileType" TileType
TileData - -> "tileRotation" TileRotation
TileData - -> "switchState" SwitchState
TileData - -> "switchInputType" SwitchInputType
@enduml

PlantUML version 1.2020.02(Sun Mar 01 10:22:07 GMT 2020)
(GPL source distribution)
Java Runtime: OpenJDK Runtime Environment
JVM: OpenJDK 64-Bit Server VM
Java Version: 11.0.9+11-Ubuntu-0ubuntu1
Operating System: Linux
Default Encoding: ANSI_X3.4-1968
Language: en
Country: US
--></g></svg>